<?xml version="1.0" standalone="no"?>
<!DOCTYPE svg PUBLIC "-//W3C//DTD SVG 20010904//EN"
 "http://www.w3.org/TR/2001/REC-SVG-20010904/DTD/svg10.dtd">
<svg version="1.0" xmlns="http://www.w3.org/2000/svg"
 width="1040.000000pt" height="1040.000000pt" viewBox="0 0 1040.000000 1040.000000"
 preserveAspectRatio="xMidYMid meet">
<metadata>
Created by potrace 1.11, written by Peter Selinger 2001-2013
</metadata>
<g transform="translate(0.000000,1040.000000) scale(0.100000,-0.100000)"
fill="#000000" stroke="none">
<path d="M320 9993 c-102 -19 -236 -124 -279 -218 -40 -90 -40 -88 -41 -948
l0 -828 22 1 c13 1 28 1 33 0 19 -4 97 -1 103 4 2 3 13 1 23 -4 11 -7 20 -7
24 0 3 5 15 6 29 0 12 -4 29 -4 36 0 8 5 22 4 31 -1 10 -5 27 -5 41 0 13 5 33
5 46 0 14 -5 22 -5 22 2 0 6 7 6 19 -1 12 -6 22 -6 26 -1 5 9 42 7 53 -3 2 -3
13 -1 23 5 13 6 19 6 19 0 0 -7 9 -7 25 -1 14 5 27 5 30 0 3 -5 18 -5 35 0 18
5 30 5 30 0 0 -6 10 -6 25 0 15 6 26 6 30 0 4 -6 13 -7 23 -1 11 6 24 6 34 0
10 -5 26 -5 40 0 13 5 33 5 46 0 13 -5 22 -5 22 2 0 6 6 6 19 0 10 -6 21 -7
25 -4 5 6 64 8 84 3 15 -4 95 -1 100 4 2 3 13 1 23 -4 11 -7 20 -7 24 0 3 5
15 6 29 0 12 -4 29 -4 36 0 8 5 22 4 31 -1 11 -5 27 -5 41 0 13 5 33 5 46 0
13 -5 22 -5 22 2 0 6 7 6 19 -1 12 -6 22 -6 26 -1 5 9 42 7 53 -3 2 -3 13 -1
23 5 13 6 19 6 19 0 0 -7 9 -7 25 -1 14 5 27 5 30 0 3 -5 18 -5 35 0 18 5 30
5 30 0 0 -6 10 -6 25 0 15 6 26 6 30 0 4 -6 13 -7 23 -1 11 6 24 6 34 0 10 -5
26 -5 40 0 13 5 33 5 46 0 13 -5 22 -5 22 2 0 6 7 6 19 -1 12 -6 22 -6 26 -1
5 10 36 7 54 -4 5 -3 12 -1 16 4 3 6 13 7 22 4 13 -5 15 -2 11 15 -4 12 -3 22
0 22 9 0 7 88 -1 97 -4 3 -2 13 3 23 5 10 7 20 3 23 -7 8 -10 97 -3 97 7 0 4
89 -3 97 -4 3 -2 13 3 22 5 10 5 23 1 29 -4 7 -5 33 -1 58 4 24 3 47 -2 50 -4
3 -4 13 2 23 5 10 7 21 3 24 -7 8 -10 97 -3 97 7 0 4 89 -3 97 -4 3 -2 13 3
23 5 10 7 20 3 23 -7 8 -10 97 -3 97 7 0 4 89 -3 97 -4 3 -2 13 3 22 5 10 5
23 1 29 -4 7 -5 33 -1 58 4 24 3 47 -2 50 -4 3 -4 13 2 23 5 10 7 21 3 24 -7
8 -10 97 -3 97 7 0 4 89 -3 97 -4 3 -2 13 3 23 5 10 7 20 3 23 -7 8 -10 97 -3
97 7 0 4 89 -3 97 -4 3 -2 13 3 22 5 10 5 23 1 29 -4 7 -5 33 -1 58 4 24 3 47
-2 50 -4 3 -4 13 2 23 5 10 7 21 3 24 -8 9 -10 97 -1 97 3 0 4 9 1 20 -5 20
-12 20 -832 19 -454 -1 -837 -4 -851 -6z"/>
<path d="M2798 9975 c-3 -14 -2 -25 3 -25 4 0 4 -13 -1 -30 -5 -16 -5 -30 -2
-30 9 0 7 -64 -3 -79 -3 -6 -1 -11 5 -11 8 0 8 -6 0 -20 -8 -14 -8 -20 0 -20
8 0 8 -6 0 -20 -8 -14 -8 -20 0 -20 6 0 8 -5 5 -11 -10 -15 -12 -79 -3 -79 3
0 3 -13 -2 -30 -5 -16 -5 -30 -2 -30 9 0 7 -64 -3 -79 -3 -6 -1 -11 5 -11 8 0
8 -6 0 -20 -8 -14 -8 -20 0 -20 8 0 8 -6 0 -20 -8 -14 -8 -20 0 -20 6 0 8 -5
5 -11 -10 -15 -12 -79 -3 -79 3 0 3 -13 -2 -30 -5 -16 -5 -30 -2 -30 9 0 7
-64 -3 -79 -3 -6 -1 -11 5 -11 8 0 8 -6 0 -20 -8 -14 -8 -20 0 -20 8 0 8 -6 0
-20 -8 -14 -8 -20 0 -20 6 0 8 -5 5 -11 -10 -15 -12 -79 -3 -79 3 0 3 -13 -2
-30 -5 -16 -5 -30 -2 -30 9 0 7 -64 -3 -79 -3 -6 -1 -11 5 -11 8 0 8 -6 0 -20
-8 -14 -8 -20 0 -20 8 0 8 -6 0 -20 -8 -14 -8 -20 0 -20 6 0 8 -5 5 -11 -10
-15 -12 -79 -3 -79 3 0 3 -13 -2 -30 -5 -16 -5 -30 -2 -30 9 0 7 -64 -3 -79
-3 -6 -1 -11 5 -11 8 0 8 -6 0 -20 -8 -14 -8 -20 0 -20 8 0 8 -6 0 -20 -8 -14
-8 -20 0 -20 6 0 8 -5 5 -11 -10 -15 -12 -79 -3 -79 3 0 3 -13 -2 -30 -5 -16
-5 -30 -2 -30 9 0 7 -69 -2 -77 -3 -4 -1 -12 5 -19 7 -8 7 -14 -1 -19 -7 -4
-7 -12 0 -26 7 -12 7 -19 1 -19 -7 0 -7 -9 -1 -26 6 -14 7 -23 2 -21 -4 3 -7
-8 -7 -24 0 -16 3 -29 7 -29 4 0 5 -7 1 -17 -5 -13 -2 -15 15 -11 12 4 22 3
22 -1 0 -4 20 -5 45 -1 25 4 47 4 50 1 4 -7 95 -4 103 4 2 2 13 0 23 -5 11 -7
20 -7 24 0 3 5 15 6 29 0 12 -4 29 -4 36 0 8 5 22 4 31 -1 10 -5 27 -5 41 0
13 5 33 5 46 0 14 -5 22 -5 22 2 0 6 7 6 19 -1 12 -6 22 -6 26 -1 5 9 42 7 53
-3 2 -3 13 -1 23 5 13 6 19 6 19 0 0 -7 9 -7 25 -1 14 5 27 5 30 0 3 -5 18 -5
35 0 18 5 30 5 30 0 0 -6 10 -6 25 0 15 6 26 6 30 -1 4 -6 13 -6 23 0 10 6 23
6 34 0 10 -5 26 -5 40 0 13 5 33 5 46 0 13 -5 22 -5 22 2 0 6 6 6 19 0 10 -6
21 -7 25 -4 5 6 64 8 84 3 15 -4 95 -1 100 4 2 3 13 1 23 -4 11 -7 20 -7 24 0
3 5 15 6 29 0 12 -4 29 -4 36 0 8 5 22 4 31 -1 11 -5 27 -5 41 0 13 5 33 5 46
0 13 -5 22 -5 22 2 0 6 7 6 19 -1 12 -6 22 -6 26 -1 5 9 42 7 53 -3 2 -3 13
-1 23 5 13 6 19 6 19 0 0 -7 9 -7 25 -1 14 5 27 5 30 0 3 -5 18 -5 35 0 18 5
30 5 30 0 0 -6 10 -6 25 0 15 6 26 6 30 -1 4 -6 13 -6 23 0 10 6 23 6 34 0 10
-5 27 -5 42 1 16 6 26 6 26 0 0 -6 9 -6 25 0 15 6 26 6 30 0 4 -7 13 -7 24 0
10 5 21 6 25 2 7 -7 8 51 3 181 -1 26 1 47 4 47 4 0 4 15 0 33 -5 18 -5 41 -1
52 4 11 4 32 0 46 -4 15 -4 32 0 39 4 6 4 26 0 44 -4 17 -5 40 -4 51 2 11 4
30 4 43 0 12 0 34 1 50 0 15 0 34 0 42 -1 8 -1 26 0 40 0 14 0 31 0 38 -1 14
-1 23 -1 121 0 41 -2 76 -4 78 -3 3 -1 15 3 27 5 11 5 30 1 41 -4 11 -4 34 1
52 4 18 4 33 0 33 -3 0 -6 29 -6 65 0 36 3 65 6 65 3 0 3 20 -1 45 -4 25 -4
48 0 50 5 3 4 21 0 40 -4 19 -4 37 0 40 5 3 5 18 1 33 -4 15 -6 36 -5 47 1 11
3 32 3 48 1 15 1 39 2 55 0 15 0 34 0 42 -1 8 -1 26 0 40 0 14 0 31 0 38 -1
13 -1 20 -2 107 0 33 0 65 0 70 0 6 0 35 0 65 0 30 0 63 -1 73 -1 16 -56 17
-999 17 l-997 0 -4 -25z"/>
<path d="M5602 9975 c3 -14 2 -27 -1 -30 -4 -2 -4 -29 -1 -59 3 -31 4 -56 1
-56 -7 0 -4 -108 3 -127 3 -7 1 -15 -3 -17 -5 -3 -5 -23 -1 -44 4 -21 5 -47 3
-58 -1 -10 -3 -29 -3 -41 0 -40 -2 -77 -4 -98 -1 -11 1 -35 5 -53 4 -17 3 -34
-1 -37 -4 -3 -4 -21 0 -40 4 -19 4 -37 0 -40 -5 -3 -5 -18 0 -34 4 -15 4 -34
0 -40 -4 -7 -4 -27 -1 -44 4 -17 4 -55 1 -84 -3 -30 -4 -56 -2 -58 3 -3 4 -28
3 -57 -2 -62 -2 -61 -1 -160 0 -43 0 -81 -1 -85 -1 -5 0 -12 1 -18 1 -5 1 -32
0 -60 -1 -69 0 -117 4 -124 2 -3 0 -15 -4 -26 -4 -11 -4 -34 1 -52 4 -18 3
-35 -1 -38 -4 -3 -4 -21 0 -40 4 -20 4 -38 -1 -41 -5 -3 -6 -10 -3 -16 7 -10
7 -98 1 -240 -2 -43 1 -49 23 -56 14 -5 40 -5 58 -2 17 4 32 4 32 -1 0 -4 13
-4 29 1 15 4 34 4 42 0 7 -5 20 -5 30 0 9 5 19 7 22 4 8 -8 112 -8 125 0 7 4
12 3 12 -3 0 -6 11 -6 30 -1 17 5 30 5 30 1 0 -5 18 -5 39 -1 21 4 46 3 54 -2
9 -5 18 -4 22 1 4 7 15 7 30 1 15 -6 25 -6 25 0 0 5 12 5 28 0 16 -4 36 -4 45
2 11 6 17 5 17 -1 0 -6 11 -6 30 -1 17 5 30 5 30 0 0 -5 13 -5 29 0 15 4 34 4
42 0 7 -5 20 -5 30 0 9 5 19 7 22 4 8 -8 112 -8 125 0 7 4 12 3 12 -3 0 -6 11
-6 30 -1 17 5 30 5 30 1 0 -5 18 -5 39 -1 21 4 46 3 54 -2 9 -5 18 -4 22 1 4
7 15 7 30 1 15 -6 25 -6 25 0 0 5 12 5 28 0 16 -4 36 -4 45 2 11 6 17 5 17 -1
0 -6 11 -6 30 -1 17 5 30 5 30 0 0 -5 13 -5 29 0 15 4 34 4 42 0 7 -5 20 -5
30 0 9 5 19 7 22 4 8 -8 112 -8 125 0 7 4 12 3 12 -3 0 -6 11 -6 30 -1 17 5
30 5 30 1 0 -5 18 -5 39 -1 21 4 46 3 54 -2 9 -5 18 -4 22 1 4 7 15 7 30 1 15
-6 25 -6 25 0 0 5 12 5 28 0 16 -4 36 -4 45 2 11 6 17 5 17 -1 0 -6 6 -8 14
-5 18 7 24 40 15 76 -4 15 -3 30 2 33 5 4 5 13 0 23 -6 11 -6 24 0 35 7 11 6
17 -1 17 -8 0 -8 6 0 20 8 14 8 20 0 20 -7 0 -8 6 0 19 7 14 7 22 0 26 -6 4
-7 11 -4 17 9 14 11 68 4 68 -7 0 -4 66 5 79 3 6 1 11 -5 11 -6 0 -8 5 -5 11
10 16 12 79 2 79 -4 0 -3 9 3 19 7 13 7 22 0 26 -7 4 -7 13 0 24 6 12 5 22 -1
28 -8 8 -7 17 0 32 8 15 9 21 1 21 -6 0 -8 5 -5 11 10 15 12 79 3 79 -3 0 -3
14 2 30 5 17 5 30 2 30 -9 0 -7 64 3 79 3 6 1 11 -5 11 -6 0 -8 5 -5 11 10 16
12 79 2 79 -4 0 -3 9 3 19 7 13 7 22 0 26 -7 4 -7 13 0 24 6 12 5 22 -1 28 -8
8 -7 17 0 32 8 15 9 21 1 21 -6 0 -8 5 -5 11 10 15 12 79 3 79 -3 0 -3 14 2
30 5 17 5 30 2 30 -9 0 -7 64 3 79 3 6 1 11 -5 11 -6 0 -8 5 -5 11 10 16 12
79 2 79 -4 0 -3 9 3 19 7 13 7 22 0 26 -7 4 -7 13 0 24 6 12 5 22 -1 28 -8 8
-7 17 0 32 8 15 9 21 1 21 -6 0 -8 5 -5 11 10 15 12 79 3 79 -3 0 -3 14 2 30
5 17 5 30 2 30 -9 0 -7 64 3 79 3 6 1 11 -5 11 -6 0 -8 5 -5 11 10 15 12 79 3
79 -4 0 -5 7 -2 15 5 13 -109 15 -996 15 l-1002 0 4 -25z"/>
<path d="M8396 9992 c-2 -4 -1 -14 3 -20 4 -7 5 -33 1 -58 -4 -24 -3 -47 2
-50 4 -3 4 -13 -2 -23 -5 -10 -7 -21 -4 -24 7 -7 11 -97 4 -97 -7 0 -4 -89 3
-97 4 -3 2 -13 -3 -23 -5 -10 -7 -20 -3 -23 7 -8 10 -97 3 -97 -7 0 -4 -89 3
-97 4 -3 2 -13 -3 -23 -5 -10 -7 -20 -3 -23 7 -8 10 -97 3 -97 -7 0 -4 -89 3
-97 4 -3 2 -13 -3 -23 -5 -10 -7 -20 -3 -23 7 -8 10 -97 3 -97 -7 0 -4 -89 3
-97 4 -3 2 -13 -3 -23 -5 -10 -7 -20 -3 -23 7 -8 10 -97 3 -97 -7 0 -4 -89 3
-97 4 -3 2 -13 -3 -23 -5 -10 -7 -20 -3 -23 7 -8 10 -97 3 -97 -7 0 -4 -89 3
-97 4 -3 2 -13 -3 -22 -5 -10 -5 -23 -1 -29 4 -7 5 -33 1 -58 -4 -24 -3 -47 2
-50 4 -3 4 -13 -1 -23 -5 -9 -6 -23 -2 -29 4 -7 5 -33 1 -58 -4 -24 -3 -47 2
-50 4 -3 4 -13 -1 -23 -5 -9 -6 -23 -1 -31 4 -7 6 -19 3 -26 -6 -16 33 -38 42
-24 5 8 11 8 20 0 8 -7 21 -7 36 -1 13 4 34 5 47 0 13 -5 22 -5 22 2 0 6 6 6
19 0 10 -6 21 -7 25 -4 5 6 64 8 84 3 15 -4 95 -1 100 4 2 3 13 1 23 -4 11 -7
20 -7 24 0 3 5 15 6 29 0 12 -4 29 -4 36 0 8 5 22 4 31 -1 11 -5 27 -5 41 0
13 5 33 5 46 0 13 -5 22 -5 22 2 0 6 7 6 19 -1 12 -6 22 -6 26 -1 5 9 42 7 53
-3 2 -3 13 -1 23 5 13 6 19 6 19 0 0 -7 9 -7 25 -1 14 5 27 5 30 0 3 -5 18 -5
35 0 18 5 30 5 30 0 0 -6 10 -6 25 0 15 6 26 6 30 0 4 -6 13 -7 23 -1 11 6 24
6 34 0 10 -5 26 -5 40 0 13 5 33 5 46 0 13 -5 22 -5 22 2 0 6 6 6 19 0 10 -6
21 -7 25 -4 5 6 64 8 84 3 15 -4 95 -1 100 4 2 3 13 1 23 -4 11 -7 20 -7 24 0
3 5 15 6 29 0 12 -4 29 -4 36 0 8 5 22 4 31 -1 11 -5 27 -5 41 0 13 5 33 5 46
0 13 -5 22 -5 22 2 0 6 7 6 19 -1 12 -6 22 -6 26 -1 5 9 42 7 53 -3 2 -3 13
-1 23 5 13 6 19 6 19 0 0 -7 9 -7 25 -1 14 5 27 5 30 0 3 -5 18 -5 35 0 18 5
30 5 30 0 0 -6 10 -6 25 0 15 6 26 6 30 0 4 -6 13 -7 23 -1 11 6 24 6 35 0 17
-10 17 33 17 830 -1 714 -3 846 -16 876 -8 19 -12 35 -8 35 3 0 -4 13 -15 29
-11 15 -18 31 -15 34 6 6 -134 147 -144 145 -4 -1 -23 6 -44 15 -20 9 -56 21
-80 26 -52 12 -1674 15 -1682 3z"/>
<path d="M25 7200 c-4 -6 -11 -8 -16 -5 -5 4 -9 -763 -9 -1995 l0 -2001 23 1
c12 1 27 1 32 0 19 -4 97 -1 103 4 2 3 13 1 23 -4 11 -7 20 -7 24 0 3 5 15 6
28 1 13 -5 30 -5 38 -1 8 5 21 5 28 0 8 -4 27 -4 42 0 16 5 31 5 33 1 5 -7 96
-4 104 4 2 2 13 0 23 -5 11 -7 20 -7 24 0 3 5 15 6 29 0 12 -4 29 -4 36 0 8 5
22 4 32 -1 12 -7 18 -6 18 1 0 7 6 8 18 1 10 -6 24 -6 32 -1 8 5 18 6 22 4 13
-8 113 -8 126 0 7 4 12 3 12 -3 0 -6 11 -6 30 -1 17 5 30 6 30 2 0 -9 53 -8
68 2 6 3 13 2 17 -4 4 -7 12 -7 26 0 12 7 19 7 19 1 0 -7 9 -7 26 -1 14 6 23
6 20 1 -4 -5 9 -6 28 -1 18 4 40 3 49 -1 9 -6 18 -5 22 0 4 7 15 7 30 1 14 -5
25 -6 25 -2 0 4 16 7 35 7 19 0 35 -3 35 -7 0 -4 11 -3 25 2 15 6 26 6 30 0 4
-6 13 -7 23 -1 11 6 24 6 34 0 10 -5 26 -5 40 0 13 5 33 5 45 0 14 -5 23 -5
23 2 0 6 7 6 19 -1 12 -6 22 -6 26 -1 3 6 15 7 28 5 12 -3 28 -5 35 -5 26 2
39 2 93 0 30 -1 61 1 67 5 7 4 12 3 12 -3 0 -6 11 -6 30 -1 17 5 30 5 30 1 0
-4 23 -5 50 -1 28 4 53 4 55 0 4 -6 96 -3 103 5 2 2 13 0 23 -5 11 -7 20 -7
24 0 3 5 15 6 28 1 13 -5 30 -5 38 -1 8 5 21 5 28 0 8 -4 27 -4 42 0 16 5 31
5 33 1 5 -7 96 -4 104 4 2 2 13 0 23 -5 11 -7 20 -7 24 0 3 5 15 6 28 1 13 -5
30 -5 38 -1 8 5 21 5 28 0 8 -4 27 -4 42 0 16 5 31 5 33 1 5 -7 96 -4 104 4 2
2 13 0 23 -5 11 -7 20 -7 24 0 3 5 15 6 28 1 13 -5 30 -5 38 -1 8 5 21 5 28 0
8 -4 27 -4 42 0 16 5 31 5 33 1 5 -7 96 -4 104 4 2 2 13 0 23 -5 11 -7 20 -7
24 0 3 5 15 6 29 0 12 -4 29 -4 36 0 8 5 22 4 32 -1 12 -7 18 -6 18 1 0 7 6 8
18 1 10 -6 24 -6 32 -1 8 5 18 6 22 4 13 -8 113 -8 126 0 7 4 12 3 12 -3 0 -6
11 -6 30 -1 17 5 30 6 30 2 0 -9 53 -8 68 2 6 3 13 2 17 -4 4 -7 12 -7 26 0
12 7 19 7 19 1 0 -7 9 -7 26 -1 14 6 23 6 20 1 -4 -5 9 -6 28 -1 18 4 40 3 49
-1 9 -6 18 -5 22 0 4 7 15 7 30 1 14 -5 25 -6 25 -2 0 4 16 7 35 7 19 0 35 -3
35 -7 0 -4 11 -3 25 2 15 6 26 6 30 0 4 -6 13 -7 23 -1 11 6 24 6 34 0 10 -5
26 -5 40 0 13 5 33 5 46 0 13 -5 22 -5 22 2 0 6 7 6 19 -1 12 -6 22 -6 26 -1
3 6 15 7 28 5 12 -3 28 -5 35 -5 26 2 39 2 93 0 30 -1 61 1 67 5 7 4 12 3 12
-3 0 -6 11 -6 30 -1 17 5 30 5 30 1 0 -4 23 -5 50 -1 28 4 53 4 55 0 4 -6 96
-3 103 5 2 2 13 0 23 -5 11 -7 20 -7 24 0 3 5 15 6 28 1 13 -5 30 -5 38 -1 8
5 21 5 28 0 8 -4 27 -4 42 0 16 5 31 5 33 1 5 -7 96 -4 104 4 2 2 13 0 23 -5
11 -7 20 -7 24 0 3 5 15 6 29 0 12 -4 29 -4 36 0 8 5 22 4 31 -1 11 -5 27 -5
41 0 13 5 33 5 46 0 13 -5 22 -5 22 2 0 6 7 6 19 -1 12 -6 22 -6 26 -1 5 9 42
7 53 -3 2 -3 13 -1 23 5 13 6 19 6 19 0 0 -7 9 -7 25 -1 14 5 27 5 30 0 3 -5
18 -5 35 0 18 5 30 5 30 0 0 -6 10 -6 25 0 15 6 26 6 30 0 4 -6 13 -7 23 -1
11 6 24 6 34 0 10 -5 26 -5 40 0 13 5 33 5 46 0 13 -5 22 -5 22 2 0 6 7 6 19
-1 14 -7 22 -7 26 0 4 7 11 7 18 2 7 -5 21 -6 32 -2 11 4 30 4 43 -1 14 -5 22
-5 22 2 0 6 7 6 19 -1 12 -6 22 -6 26 -1 5 9 42 7 53 -3 2 -3 13 -1 23 5 13 6
19 6 19 0 0 -7 9 -7 25 -1 14 5 27 5 30 0 3 -5 18 -5 35 0 18 5 30 5 30 0 0
-6 10 -6 25 0 15 6 26 6 30 0 4 -6 13 -7 23 -1 11 6 24 6 34 0 10 -5 26 -5 40
0 13 5 33 5 46 0 13 -5 22 -5 22 2 0 6 7 6 19 -1 14 -7 22 -7 26 0 4 7 11 7
18 2 7 -5 21 -6 32 -2 11 4 30 4 43 -1 14 -5 22 -5 22 2 0 6 7 6 19 -1 12 -6
22 -6 26 -1 5 9 42 7 53 -3 2 -3 13 -1 23 5 13 6 19 6 19 0 0 -7 9 -7 25 -1
14 5 27 5 30 0 3 -5 18 -5 35 0 18 5 30 5 30 0 0 -6 10 -6 25 0 15 6 26 6 30
0 4 -6 13 -7 23 -1 11 6 24 6 34 0 10 -5 26 -5 40 0 13 5 33 5 46 0 13 -5 22
-5 22 2 0 6 7 6 19 -1 14 -7 22 -7 26 0 4 7 11 7 18 2 7 -5 21 -6 32 -2 11 4
30 4 43 -1 14 -5 22 -5 22 2 0 6 7 6 19 -1 12 -6 22 -6 26 -1 5 9 42 7 53 -3
2 -3 13 -1 23 5 13 6 19 6 19 0 0 -7 9 -7 25 -1 14 5 27 5 30 0 3 -5 18 -5 35
0 18 5 30 5 30 0 0 -6 10 -6 25 0 15 6 26 6 30 0 4 -6 13 -7 23 -1 11 6 24 6
34 0 10 -5 26 -5 40 0 13 5 33 5 46 0 13 -5 22 -5 22 2 0 6 7 6 19 -1 12 -6
22 -6 26 -1 3 6 15 7 28 5 12 -3 28 -5 35 -5 26 2 39 2 93 0 30 -1 61 1 67 5
7 4 12 3 12 -3 0 -6 11 -6 30 -1 16 5 30 6 30 2 0 -9 53 -8 68 2 6 3 13 2 17
-4 4 -7 12 -7 26 0 12 7 19 7 19 1 0 -7 9 -7 26 -1 14 6 23 6 20 1 -4 -5 9 -6
28 -1 18 4 40 3 49 -1 9 -6 18 -5 22 0 4 7 15 7 30 1 14 -5 25 -6 25 -2 0 4
16 7 35 7 19 0 35 -3 35 -7 0 -4 11 -3 25 2 15 6 26 6 30 0 4 -6 13 -7 23 -1
11 6 24 6 34 0 10 -5 26 -5 40 0 13 5 33 5 46 0 13 -5 22 -5 22 2 0 6 7 6 19
-1 12 -6 22 -6 26 -1 3 6 15 7 28 5 12 -3 28 -5 35 -5 26 2 39 2 93 0 30 -1
61 1 67 5 7 4 12 3 12 -3 0 -6 11 -6 30 -1 16 5 30 5 30 1 0 -4 23 -5 50 -1
28 4 53 4 55 0 4 -6 96 -3 103 5 2 2 13 0 23 -5 11 -7 20 -7 24 0 3 5 15 6 28
1 13 -5 30 -5 38 -1 8 5 21 5 28 0 8 -4 27 -4 42 0 16 5 31 5 33 1 5 -7 96 -4
104 4 2 2 13 0 23 -5 11 -7 20 -7 24 0 3 5 15 6 29 0 12 -4 29 -4 36 0 8 5 22
4 32 -1 12 -7 18 -6 18 1 0 7 6 8 18 1 10 -6 24 -6 32 -1 8 5 18 6 22 4 13 -8
113 -8 126 0 7 4 12 3 12 -3 0 -6 11 -6 30 -1 16 5 30 6 30 2 0 -9 53 -8 68 2
6 3 13 2 17 -4 4 -7 12 -7 26 0 12 7 19 7 19 1 0 -7 9 -7 26 -1 14 6 23 6 20
1 -4 -5 9 -6 28 -1 18 4 40 3 49 -1 9 -6 18 -5 22 0 4 7 15 7 30 1 14 -5 25
-6 25 -2 0 4 16 7 35 7 19 0 35 -3 35 -7 0 -4 11 -3 25 2 15 6 26 6 30 0 4 -6
13 -7 23 -1 11 6 24 6 35 0 16 -9 17 100 17 1990 0 1906 -1 2001 -18 2010 -11
6 -24 6 -35 0 -11 -7 -17 -7 -17 0 0 7 -8 7 -25 1 -15 -6 -26 -6 -30 0 -4 6
-13 7 -23 1 -11 -6 -24 -6 -34 0 -10 6 -19 6 -23 0 -4 -7 -15 -7 -30 -1 -15 6
-25 6 -25 0 0 -5 -12 -5 -30 0 -18 5 -30 5 -30 0 0 -6 -10 -6 -25 0 -14 5 -25
6 -25 1 0 -5 -15 -6 -32 -2 -18 4 -45 4 -60 0 -16 -4 -28 -3 -28 1 0 5 -13 5
-30 0 -18 -5 -30 -5 -30 0 0 6 -10 6 -25 0 -14 -5 -25 -6 -25 -1 0 5 -16 5
-35 1 -19 -4 -35 -4 -35 1 0 5 -11 4 -25 -1 -15 -6 -26 -6 -30 0 -4 6 -13 7
-23 1 -11 -6 -24 -6 -34 0 -10 5 -26 5 -40 0 -13 -5 -33 -5 -45 0 -14 5 -23 5
-23 -2 0 -6 -7 -6 -19 1 -14 7 -22 7 -26 0 -4 -7 -11 -7 -18 -2 -7 5 -21 6
-32 2 -11 -4 -30 -4 -42 1 -15 5 -23 5 -23 -2 0 -6 -7 -6 -19 1 -14 7 -22 7
-26 0 -4 -7 -11 -7 -18 -2 -7 5 -21 6 -32 2 -11 -4 -30 -4 -42 1 -15 5 -23 5
-23 -2 0 -6 -7 -6 -19 1 -14 7 -22 7 -26 0 -4 -7 -11 -7 -18 -2 -7 5 -21 6
-32 2 -11 -4 -30 -4 -42 1 -15 5 -23 5 -23 -2 0 -6 -7 -6 -19 1 -12 6 -22 6
-26 1 -5 -10 -43 -7 -53 4 -3 2 -11 0 -18 -6 -8 -7 -14 -7 -18 0 -4 7 -15 7
-31 1 -15 -6 -27 -6 -30 0 -4 6 -13 7 -24 1 -10 -6 -23 -6 -31 -1 -8 5 -21 5
-30 0 -9 -5 -23 -4 -32 1 -11 6 -19 6 -23 -1 -4 -6 -11 -8 -16 -5 -12 8 -89
12 -89 5 0 -3 -13 -5 -30 -5 -16 0 -30 3 -30 7 0 4 -11 3 -25 -2 -15 -6 -26
-6 -30 0 -4 6 -13 7 -24 1 -9 -5 -23 -6 -31 -1 -7 4 -24 4 -37 -1 -14 -5 -23
-5 -23 1 0 6 -9 6 -23 1 -13 -5 -30 -5 -39 0 -10 6 -19 6 -23 0 -3 -7 -15 -7
-30 -1 -15 6 -27 6 -30 0 -3 -6 -15 -6 -30 0 -16 6 -25 6 -25 0 0 -6 -9 -6
-25 0 -14 5 -27 5 -30 0 -3 -5 -18 -5 -33 -1 -15 4 -39 4 -54 0 -16 -4 -28 -3
-28 2 0 5 -11 4 -25 -1 -15 -6 -26 -6 -30 0 -4 7 -13 6 -25 0 -12 -6 -21 -7
-25 0 -3 5 -15 6 -28 1 -13 -5 -30 -5 -39 0 -10 6 -19 6 -23 0 -3 -6 -15 -7
-29 -1 -12 4 -29 4 -36 0 -8 -5 -22 -4 -32 1 -12 7 -18 6 -18 -1 0 -7 -6 -8
-18 -1 -10 5 -24 6 -31 1 -8 -4 -25 -5 -40 -1 -14 5 -38 4 -53 0 -16 -4 -28
-3 -28 2 0 5 -11 4 -25 -1 -15 -6 -26 -6 -30 0 -4 7 -13 6 -25 0 -12 -6 -21
-7 -25 0 -3 5 -15 6 -28 1 -13 -5 -30 -5 -39 0 -10 6 -19 6 -23 0 -3 -7 -15
-7 -30 -1 -15 6 -27 6 -30 0 -3 -6 -15 -6 -30 0 -16 6 -25 6 -25 0 0 -6 -9 -6
-25 0 -14 5 -27 5 -30 0 -3 -5 -18 -5 -33 -1 -15 4 -39 4 -54 0 -16 -4 -28 -3
-28 2 0 5 -11 4 -26 -1 -15 -6 -23 -6 -19 -1 3 6 -6 6 -25 1 -17 -5 -30 -5
-30 0 0 5 -13 5 -30 0 -18 -5 -30 -5 -30 0 0 6 -10 6 -25 0 -15 -6 -27 -6 -30
0 -3 6 -15 6 -30 0 -16 -6 -25 -6 -25 0 0 6 -9 6 -23 1 -13 -5 -30 -5 -37 -1
-8 5 -21 5 -30 0 -9 -5 -23 -4 -32 1 -11 6 -19 6 -23 -1 -4 -6 -11 -7 -17 -4
-14 9 -124 8 -138 -1 -5 -3 -10 -2 -10 4 0 6 -11 6 -29 1 -15 -4 -34 -4 -42 0
-7 5 -20 5 -28 1 -9 -4 -27 -5 -41 -1 -14 4 -37 3 -52 -1 -16 -4 -28 -4 -28 1
0 6 -10 6 -25 0 -15 -6 -26 -6 -30 0 -4 7 -13 6 -25 0 -12 -6 -21 -7 -25 0 -3
5 -15 6 -28 1 -13 -5 -30 -5 -39 0 -10 6 -19 6 -23 0 -3 -7 -15 -7 -30 -1 -15
6 -27 6 -30 0 -3 -6 -15 -6 -30 0 -16 6 -25 6 -25 0 0 -6 -9 -6 -25 0 -14 5
-27 5 -30 0 -3 -5 -18 -5 -33 -1 -15 4 -39 4 -54 0 -16 -4 -28 -3 -28 2 0 5
-11 4 -26 -1 -15 -6 -23 -6 -19 -1 3 6 -6 6 -25 1 -17 -5 -30 -5 -30 0 0 5
-13 5 -30 0 -18 -5 -30 -5 -30 0 0 6 -10 6 -25 0 -15 -6 -27 -6 -30 0 -3 6
-15 6 -30 0 -16 -6 -25 -6 -25 0 0 6 -9 6 -23 1 -13 -5 -30 -5 -37 -1 -8 5
-21 5 -30 0 -9 -5 -23 -4 -32 1 -11 6 -19 6 -23 -1 -4 -6 -11 -7 -17 -4 -14 9
-124 8 -138 -1 -5 -3 -10 -2 -10 2 0 9 -79 8 -87 -1 -3 -3 -16 -1 -29 4 -16 6
-24 6 -24 -1 0 -6 -7 -6 -19 1 -14 7 -22 7 -26 0 -4 -7 -11 -7 -18 -2 -7 5
-21 6 -32 2 -11 -4 -30 -4 -42 1 -15 5 -23 5 -23 -2 0 -6 -7 -6 -19 1 -14 7
-22 7 -26 0 -4 -7 -11 -7 -18 -2 -7 5 -21 6 -32 2 -11 -4 -30 -4 -42 1 -15 5
-23 5 -23 -2 0 -6 -7 -6 -19 1 -14 7 -22 7 -26 0 -4 -7 -11 -7 -18 -2 -7 5
-21 6 -32 2 -11 -4 -30 -4 -42 1 -15 5 -23 5 -23 -2 0 -6 -7 -6 -19 1 -12 6
-22 6 -26 1 -5 -9 -42 -7 -53 3 -2 3 -13 1 -23 -5 -13 -6 -19 -6 -19 0 0 7 -9
7 -25 1 -15 -6 -26 -6 -30 0 -4 6 -13 7 -23 1 -11 -6 -24 -6 -34 0 -10 6 -19
6 -23 0 -4 -7 -15 -7 -30 -1 -15 6 -25 6 -25 0 0 -5 -12 -5 -30 0 -18 5 -30 5
-30 0 0 -6 -10 -6 -25 0 -14 5 -25 6 -25 1 0 -5 -15 -6 -33 -2 -17 4 -44 4
-59 0 -16 -4 -28 -3 -28 1 0 5 -14 5 -30 0 -18 -5 -30 -5 -30 0 0 6 -10 6 -25
0 -16 -6 -25 -6 -25 0 0 6 -9 6 -23 1 -13 -5 -30 -5 -39 0 -10 6 -19 6 -23 0
-4 -7 -15 -7 -30 -1 -15 6 -25 6 -25 0 0 -5 -12 -5 -30 0 -18 5 -30 5 -30 0 0
-6 -10 -6 -25 0 -14 5 -25 6 -25 1 0 -5 -15 -6 -32 -2 -18 4 -45 4 -60 0 -16
-4 -28 -3 -28 1 0 5 -14 5 -30 0 -18 -5 -30 -5 -30 0 0 6 -10 6 -25 0 -14 -5
-25 -6 -25 -1 0 5 -16 5 -35 1 -19 -4 -35 -4 -35 1 0 5 -11 4 -25 -1 -15 -6
-26 -6 -30 0 -4 6 -13 7 -23 1 -11 -6 -24 -6 -34 0 -10 5 -26 5 -40 0 -13 -5
-33 -5 -45 0 -14 5 -23 5 -23 -2 0 -6 -7 -6 -19 1 -14 7 -22 7 -26 0 -4 -7
-11 -7 -18 -2 -7 5 -21 6 -32 2 -11 -4 -30 -4 -42 1 -15 5 -23 5 -23 -2 0 -6
-7 -6 -19 1 -14 7 -22 7 -26 0 -4 -7 -11 -7 -18 -2 -7 5 -21 6 -32 2 -11 -4
-30 -4 -42 1 -15 5 -23 5 -23 -2 0 -6 -7 -6 -19 1 -14 7 -22 7 -26 0 -4 -7
-11 -7 -18 -2 -7 5 -21 6 -32 2 -11 -4 -30 -4 -42 1 -15 5 -23 5 -23 -2 0 -6
-7 -6 -19 1 -14 7 -22 7 -26 0 -4 -7 -11 -7 -18 -2 -7 5 -21 6 -32 2 -11 -4
-30 -4 -42 1 -15 5 -23 5 -23 -2 0 -6 -7 -6 -19 1 -14 7 -22 7 -26 0 -4 -7
-11 -7 -18 -2 -7 5 -21 6 -32 2 -11 -4 -30 -4 -42 1 -15 5 -23 5 -23 -2 0 -6
-7 -6 -19 1 -14 7 -22 7 -26 0 -4 -7 -11 -7 -18 -2 -7 5 -21 6 -32 2 -11 -4
-30 -4 -42 1 -15 5 -23 5 -23 -2 0 -6 -7 -6 -19 1 -14 7 -22 7 -26 0 -4 -7
-11 -7 -18 -2 -7 5 -21 6 -32 2 -11 -4 -30 -4 -42 1 -15 5 -23 5 -23 -2 0 -6
-7 -6 -19 1 -12 6 -22 6 -26 1 -5 -9 -42 -7 -53 3 -2 3 -13 1 -23 -5 -13 -6
-19 -6 -19 0 0 7 -9 7 -25 1 -15 -6 -26 -6 -30 0 -4 6 -13 7 -23 1 -11 -6 -24
-6 -34 0 -10 6 -19 6 -23 0 -4 -7 -15 -7 -30 -1 -15 6 -25 6 -25 0 0 -5 -12
-5 -30 0 -18 5 -30 5 -30 0 0 -6 -10 -6 -25 0 -14 5 -25 6 -25 1 0 -5 -15 -6
-32 -2 -18 4 -45 4 -60 0 -16 -4 -28 -3 -28 1 0 5 -14 5 -30 0 -18 -5 -30 -5
-30 0 0 6 -10 6 -25 0 -16 -6 -25 -6 -25 0 0 6 -9 6 -23 1 -13 -5 -30 -5 -39
0 -10 6 -19 6 -23 0 -4 -7 -15 -7 -30 -1 -15 6 -25 6 -25 0 0 -5 -12 -5 -30 0
-18 5 -30 5 -30 0 0 -6 -10 -6 -25 0 -14 5 -25 6 -25 1 0 -5 -15 -6 -32 -2
-18 4 -45 4 -60 0 -16 -4 -28 -3 -28 1 0 5 -14 5 -30 0 -18 -5 -30 -5 -30 0 0
6 -10 6 -25 0 -14 -5 -25 -6 -25 -1 0 5 -16 5 -35 1 -19 -4 -35 -4 -35 1 0 5
-11 4 -25 -1 -15 -6 -26 -6 -30 0 -4 6 -13 7 -23 1 -11 -6 -24 -6 -34 0 -10 5
-26 5 -40 0 -13 -5 -33 -5 -45 0 -14 5 -23 5 -23 -2 0 -6 -7 -6 -19 1 -14 7
-22 7 -26 0 -4 -7 -11 -7 -18 -2 -7 5 -21 6 -32 2 -11 -4 -30 -4 -42 1 -15 5
-23 5 -23 -2 0 -6 -7 -6 -19 1 -14 7 -22 7 -26 0 -4 -7 -11 -7 -18 -2 -7 5
-21 6 -32 2 -11 -4 -30 -4 -42 1 -15 5 -23 5 -23 -2 0 -6 -7 -6 -19 1 -14 7
-22 7 -26 0 -4 -7 -11 -7 -18 -2 -7 5 -21 6 -32 2 -11 -4 -30 -4 -42 1 -15 5
-23 5 -23 -2 0 -6 -7 -6 -19 1 -14 7 -22 7 -26 0z"/>
<path d="M25 2400 c-4 -6 -11 -8 -16 -4 -6 3 -9 -301 -9 -830 1 -735 3 -841
17 -874 8 -20 14 -37 13 -37 -12 0 49 -94 83 -128 49 -49 87 -80 87 -70 0 3 8
-1 18 -9 9 -9 44 -23 77 -31 51 -13 178 -15 881 -16 799 -1 822 -1 827 18 2
10 1 25 -4 32 -4 7 -4 20 1 30 5 9 7 19 3 22 -7 8 -10 97 -3 97 7 0 4 89 -3
97 -4 3 -2 13 3 22 5 10 5 23 1 29 -4 7 -5 33 -1 58 4 24 3 47 -2 50 -4 3 -4
13 2 23 5 10 7 21 3 24 -7 8 -10 97 -3 97 7 0 4 89 -3 97 -4 3 -2 13 3 23 5
10 7 20 3 23 -7 8 -10 97 -3 97 7 0 4 89 -3 97 -4 3 -2 13 3 22 5 10 5 23 1
29 -4 7 -5 33 -1 58 4 24 3 47 -2 50 -4 3 -4 13 2 23 5 10 7 21 3 24 -7 8 -10
97 -3 97 7 0 4 89 -3 97 -4 3 -2 13 3 23 5 10 7 20 3 23 -7 8 -10 97 -3 97 7
0 4 89 -3 97 -4 3 -2 13 3 22 5 10 5 23 1 29 -4 7 -5 33 -1 58 4 24 4 47 -1
49 -8 6 -7 24 3 40 3 6 2 19 -2 30 -4 11 -4 34 1 52 4 18 3 33 -1 33 -4 0 -4
18 0 40 4 22 3 43 -1 46 -5 3 -7 9 -4 14 7 11 -37 18 -61 10 -10 -4 -26 -4
-35 1 -8 4 -21 4 -28 -1 -8 -4 -25 -5 -40 -1 -14 5 -38 4 -53 0 -16 -4 -28 -3
-28 2 0 5 -11 4 -25 -1 -15 -6 -27 -6 -30 0 -3 6 -15 6 -30 0 -16 -6 -25 -6
-25 0 0 6 -9 6 -23 1 -13 -5 -30 -5 -37 -1 -8 5 -21 5 -30 0 -9 -5 -23 -4 -32
1 -11 6 -19 6 -23 -1 -4 -6 -11 -7 -17 -4 -14 9 -124 8 -138 -1 -5 -3 -10 -2
-10 2 0 9 -79 8 -87 -1 -3 -3 -16 -1 -29 4 -16 6 -24 6 -24 -1 0 -6 -7 -6 -19
1 -14 7 -22 7 -26 0 -4 -7 -11 -7 -18 -2 -7 5 -21 6 -32 2 -11 -4 -30 -4 -42
1 -15 5 -23 5 -23 -2 0 -6 -7 -6 -19 1 -12 6 -22 6 -26 1 -5 -10 -36 -7 -54 4
-5 3 -12 1 -15 -4 -3 -5 -21 -6 -38 -2 -18 4 -45 4 -60 0 -16 -4 -28 -3 -28 1
0 5 -13 5 -30 0 -18 -5 -30 -5 -30 0 0 6 -10 6 -25 0 -14 -5 -25 -6 -25 -2 0
8 -94 6 -116 -2 -8 -3 -14 -1 -14 4 0 5 -13 5 -30 0 -18 -5 -30 -5 -30 0 0 6
-10 6 -25 0 -15 -6 -25 -6 -25 0 0 5 -12 5 -30 0 -16 -5 -32 -5 -34 -1 -5 7
-85 5 -93 -3 -3 -3 -16 -1 -29 4 -16 6 -24 6 -24 -1 0 -6 -7 -6 -19 1 -14 7
-22 7 -26 0 -4 -7 -11 -7 -18 -2 -7 5 -21 6 -32 2 -11 -4 -30 -4 -42 1 -15 5
-23 5 -23 -2 0 -6 -7 -6 -19 1 -14 7 -22 7 -26 0z"/>
<path d="M2806 2388 c-10 -14 -12 -24 -6 -26 6 -2 7 -8 4 -14 -9 -14 -11 -78
-2 -78 3 0 3 -13 -2 -30 -5 -16 -5 -30 -2 -30 9 0 7 -64 -3 -79 -3 -6 -1 -11
5 -11 8 0 8 -6 0 -20 -8 -14 -8 -20 0 -20 8 0 8 -6 0 -20 -8 -14 -8 -20 0 -20
6 0 8 -5 5 -11 -10 -15 -12 -79 -3 -79 3 0 3 -13 -2 -30 -5 -16 -5 -30 -2 -30
9 0 7 -64 -3 -79 -3 -6 -1 -11 5 -11 8 0 8 -6 0 -20 -8 -14 -8 -20 0 -20 8 0
8 -6 0 -20 -8 -14 -8 -20 0 -20 6 0 8 -5 5 -11 -10 -15 -12 -79 -3 -79 3 0 3
-13 -2 -30 -5 -16 -5 -30 -2 -30 9 0 7 -64 -3 -79 -3 -6 -1 -11 5 -11 8 0 8
-6 0 -20 -8 -14 -8 -20 0 -20 8 0 8 -6 0 -20 -8 -14 -8 -20 0 -20 6 0 8 -5 5
-11 -10 -15 -12 -79 -3 -79 3 0 3 -13 -2 -30 -5 -16 -5 -30 -2 -30 9 0 7 -64
-3 -79 -3 -6 -1 -11 5 -11 8 0 8 -6 0 -20 -8 -14 -8 -20 0 -20 8 0 8 -6 0 -20
-8 -14 -8 -20 0 -20 6 0 8 -5 5 -11 -10 -15 -12 -79 -3 -79 3 0 3 -13 -2 -30
-5 -16 -5 -30 -2 -30 9 0 7 -64 -3 -79 -3 -6 -1 -11 5 -11 8 0 8 -6 0 -20 -8
-14 -8 -20 0 -20 8 0 8 -6 0 -20 -8 -14 -8 -20 0 -20 6 0 8 -5 5 -11 -10 -15
-12 -79 -3 -79 3 0 3 -13 -2 -30 -5 -16 -5 -30 -2 -30 9 0 7 -64 -3 -79 -3 -6
-1 -11 5 -11 8 0 8 -6 0 -20 -8 -14 -8 -20 0 -20 8 0 8 -6 0 -20 -8 -14 -8
-20 0 -20 8 0 8 -6 0 -20 -11 -20 -8 -20 993 -20 552 0 1006 2 1009 6 3 3 3
19 -1 37 -4 18 -4 50 -1 72 3 22 2 59 -1 83 -3 23 -2 45 2 47 4 3 4 18 -1 34
-4 15 -4 34 0 41 4 6 4 26 0 44 -4 17 -5 40 -4 51 2 11 4 30 4 43 0 12 0 34 1
50 0 15 0 34 0 42 -1 8 -1 26 0 40 0 14 0 31 0 38 -1 14 -1 23 -1 121 0 41 -2
76 -4 78 -3 3 -1 15 3 27 5 11 5 30 1 41 -4 11 -4 34 1 52 4 18 4 33 0 33 -3
0 -6 29 -6 65 0 36 3 65 6 65 3 0 3 20 -1 45 -4 25 -4 48 0 50 5 3 4 21 0 40
-4 19 -4 37 0 40 5 3 5 18 1 33 -4 15 -6 36 -5 47 1 11 3 32 3 48 1 15 1 39 2
55 0 15 0 34 0 42 -1 8 -1 26 0 40 0 14 0 32 0 40 -1 8 -1 26 0 40 0 14 1 39
0 55 0 17 0 55 0 85 0 30 0 66 -1 80 -1 14 -1 32 -1 40 4 81 -2 115 -20 105
-5 -4 -9 -2 -9 4 0 7 -8 7 -22 2 -13 -5 -32 -5 -43 -1 -11 4 -32 4 -47 -1 -16
-4 -28 -4 -28 1 0 5 -13 5 -30 0 -18 -5 -30 -5 -30 0 0 6 -10 6 -25 0 -14 -5
-25 -6 -25 -2 0 8 -94 6 -116 -2 -8 -3 -14 -1 -14 4 0 5 -13 5 -30 0 -18 -5
-30 -5 -30 0 0 6 -10 6 -25 0 -15 -6 -25 -6 -25 0 0 5 -12 5 -30 0 -16 -5 -32
-5 -34 -1 -5 7 -85 5 -93 -3 -3 -3 -16 -1 -29 4 -16 6 -24 6 -24 -1 0 -6 -7
-6 -19 1 -14 7 -22 7 -26 0 -4 -7 -11 -7 -18 -2 -7 5 -21 6 -32 2 -11 -4 -30
-4 -42 1 -15 5 -23 5 -23 -2 0 -6 -7 -6 -19 1 -12 6 -22 6 -26 1 -5 -9 -36 -8
-53 3 -4 2 -14 1 -21 -4 -8 -4 -25 -5 -40 -1 -14 5 -38 4 -53 0 -16 -4 -28 -3
-28 2 0 5 -11 4 -25 -1 -15 -6 -27 -6 -30 0 -3 6 -15 6 -30 0 -16 -6 -25 -6
-25 0 0 6 -9 6 -23 1 -13 -5 -30 -5 -37 -1 -8 5 -21 5 -30 0 -9 -5 -23 -4 -32
1 -11 6 -19 6 -23 -1 -4 -6 -11 -7 -17 -4 -14 9 -124 8 -138 -1 -5 -3 -10 -2
-10 2 0 9 -79 8 -87 -1 -3 -3 -16 -1 -29 4 -16 6 -24 6 -24 -1 0 -6 -7 -6 -19
1 -14 7 -22 7 -26 0 -4 -7 -11 -7 -18 -2 -7 5 -21 6 -32 2 -11 -4 -30 -4 -42
1 -15 5 -23 5 -23 -2 0 -6 -7 -6 -19 1 -11 5 -22 6 -25 2 -5 -9 -59 -8 -75 2
-5 4 -17 -4 -25 -16z"/>
<path d="M5596 2393 c-3 -7 -1 -15 5 -18 5 -4 7 -11 3 -16 -3 -5 -5 -44 -5
-87 1 -42 1 -85 1 -94 0 -10 0 -26 0 -35 0 -10 0 -46 0 -80 0 -34 0 -66 -1
-70 -1 -4 0 -12 1 -18 1 -5 1 -32 0 -60 -1 -63 -1 -64 0 -157 0 -43 0 -81 -1
-85 -1 -5 0 -12 1 -18 1 -5 1 -32 0 -60 -1 -69 0 -117 4 -124 2 -3 0 -15 -4
-26 -4 -11 -4 -34 1 -52 4 -18 3 -35 -1 -38 -4 -3 -4 -21 0 -40 4 -20 4 -38
-1 -41 -5 -3 -7 -10 -3 -15 7 -12 9 -187 2 -195 -3 -3 -2 -21 2 -40 4 -19 5
-36 1 -38 -4 -3 -4 -30 -1 -60 3 -31 4 -56 1 -56 -7 0 -4 -108 3 -127 3 -7 1
-15 -3 -17 -5 -3 -5 -23 -1 -44 4 -21 5 -47 3 -58 -3 -18 -4 -37 -3 -79 0 -11
0 -43 -1 -72 0 -28 2 -57 6 -62 4 -8 308 -11 995 -11 979 0 989 0 1000 20 8
14 8 20 0 20 -6 0 -8 5 -5 11 10 16 12 79 2 79 -4 0 -3 9 3 19 7 13 7 22 0 26
-7 4 -7 13 0 24 6 12 5 22 -1 28 -8 8 -7 17 0 32 8 15 9 21 1 21 -6 0 -8 5 -5
11 10 15 12 79 3 79 -3 0 -3 14 2 30 5 17 5 30 2 30 -9 0 -7 64 3 79 3 6 1 11
-5 11 -6 0 -8 5 -5 11 10 16 12 79 2 79 -4 0 -3 9 3 19 7 13 7 22 0 26 -7 4
-7 13 0 24 6 12 5 22 -1 28 -8 8 -7 17 0 32 8 15 9 21 1 21 -6 0 -8 5 -5 11
10 15 12 79 3 79 -3 0 -3 14 2 30 5 17 5 30 2 30 -9 0 -7 64 3 79 3 6 1 11 -5
11 -6 0 -8 5 -5 11 10 16 12 79 2 79 -4 0 -3 9 3 19 7 13 7 22 0 26 -7 4 -7
13 0 24 6 12 5 22 -1 28 -8 8 -7 17 0 32 8 15 9 21 1 21 -6 0 -8 5 -5 11 10
15 12 79 3 79 -3 0 -3 14 2 30 5 17 5 30 2 30 -9 0 -7 64 3 79 3 6 1 11 -5 11
-6 0 -8 5 -5 11 10 16 12 79 2 79 -4 0 -3 9 3 19 7 13 7 22 0 26 -7 4 -7 13 0
24 6 12 5 22 -1 28 -8 8 -7 17 0 32 8 15 9 21 1 21 -6 0 -8 5 -5 11 9 13 12
79 5 79 -7 0 -5 54 3 66 3 6 2 16 -3 24 -5 9 -5 19 2 27 7 9 7 13 -1 13 -8 0
-9 5 -1 19 14 28 -21 52 -60 41 -15 -4 -33 -4 -41 0 -7 5 -20 5 -29 0 -9 -5
-23 -4 -32 1 -10 6 -19 6 -23 0 -4 -7 -15 -7 -30 -1 -16 6 -25 6 -25 0 0 -5
-7 -7 -15 -4 -23 9 -145 10 -145 1 0 -4 -9 -3 -19 3 -13 6 -22 7 -26 0 -3 -5
-15 -6 -29 0 -12 4 -29 4 -36 0 -8 -5 -22 -4 -32 1 -12 7 -18 6 -18 -1 0 -7
-6 -8 -18 -1 -13 7 -22 7 -29 0 -8 -8 -13 -8 -17 0 -4 7 -15 7 -31 1 -15 -6
-27 -6 -30 1 -4 6 -13 6 -23 0 -9 -5 -23 -6 -32 -1 -9 5 -22 5 -30 0 -8 -5
-21 -5 -31 1 -11 6 -20 5 -24 -1 -4 -6 -15 -6 -30 0 -16 6 -25 6 -25 0 0 -5
-7 -7 -15 -4 -23 9 -145 10 -145 1 0 -4 -9 -3 -19 3 -13 6 -22 7 -26 0 -3 -5
-15 -6 -29 0 -12 4 -29 4 -36 0 -8 -5 -22 -4 -32 1 -12 7 -18 6 -18 -1 0 -7
-6 -8 -18 -1 -13 7 -22 7 -29 0 -8 -8 -13 -8 -17 0 -4 7 -15 7 -31 1 -15 -6
-27 -6 -30 0 -4 6 -13 7 -24 1 -10 -6 -23 -6 -31 -1 -8 5 -21 5 -30 0 -9 -5
-23 -4 -32 1 -10 6 -19 6 -23 0 -4 -7 -15 -7 -30 -1 -16 6 -25 6 -25 0 0 -5
-7 -7 -15 -4 -23 9 -145 10 -145 1 0 -4 -9 -3 -19 3 -13 6 -22 7 -26 0 -3 -5
-15 -6 -29 0 -12 4 -29 4 -36 0 -8 -5 -22 -4 -31 1 -11 6 -20 5 -24 -1 -4 -6
-15 -6 -30 0 -14 5 -25 6 -25 2 0 -4 -9 -8 -20 -8 -11 0 -20 3 -20 6 0 11 -60
4 -64 -7z"/>
<path d="M8403 2385 c2 -14 1 -25 -2 -25 -4 0 -5 -17 -3 -37 4 -50 2 -115 -4
-124 -2 -4 0 -10 6 -14 7 -4 7 -12 0 -24 -5 -10 -7 -21 -4 -24 7 -7 11 -97 4
-97 -7 0 -4 -89 3 -97 4 -3 2 -13 -3 -23 -5 -10 -7 -20 -3 -23 7 -8 10 -97 3
-97 -7 0 -4 -89 3 -97 4 -3 2 -13 -3 -23 -5 -10 -7 -20 -3 -23 7 -8 10 -97 3
-97 -7 0 -4 -89 3 -97 4 -3 2 -13 -3 -23 -5 -10 -7 -20 -3 -23 7 -8 10 -97 3
-97 -7 0 -4 -89 3 -97 4 -3 2 -13 -3 -23 -5 -10 -7 -20 -3 -23 7 -8 10 -97 3
-97 -7 0 -4 -89 3 -97 4 -3 2 -13 -3 -23 -5 -10 -7 -20 -3 -23 7 -8 10 -97 3
-97 -7 0 -4 -89 3 -97 4 -3 2 -13 -3 -22 -5 -10 -5 -23 -1 -29 4 -7 5 -33 1
-58 -4 -24 -3 -47 2 -50 4 -3 4 -13 -1 -23 -5 -9 -6 -23 -2 -30 5 -7 5 -27 1
-45 -4 -17 -4 -40 0 -51 4 -11 5 -23 3 -28 -2 -4 370 -7 827 -7 l831 1 71 25
c78 28 81 30 141 90 70 68 93 108 116 199 7 25 11 335 11 857 0 775 -1 818
-18 827 -11 6 -24 6 -35 0 -11 -7 -17 -7 -17 0 0 7 -8 7 -24 1 -13 -5 -27 -6
-30 -2 -8 8 -103 5 -116 -3 -6 -3 -10 -2 -10 4 0 6 -11 6 -30 1 -18 -5 -30 -5
-30 0 0 6 -10 6 -25 0 -15 -6 -25 -6 -25 0 0 5 -12 5 -30 0 -16 -5 -32 -5 -34
-1 -5 7 -85 5 -93 -3 -3 -3 -16 -1 -29 4 -16 6 -24 6 -24 -1 0 -6 -7 -6 -19 1
-14 7 -22 7 -26 0 -4 -7 -11 -7 -18 -2 -7 5 -21 6 -32 2 -11 -4 -30 -4 -42 1
-15 5 -23 5 -23 -2 0 -6 -7 -6 -19 1 -12 6 -22 6 -26 1 -5 -9 -36 -8 -53 3 -4
2 -14 1 -21 -4 -8 -4 -25 -5 -40 -1 -14 5 -38 4 -53 0 -16 -4 -28 -3 -28 2 0
5 -11 4 -25 -1 -15 -6 -27 -6 -30 0 -3 6 -15 6 -30 0 -16 -6 -25 -6 -25 0 0 6
-9 6 -23 1 -13 -5 -30 -5 -37 -1 -8 5 -21 5 -30 0 -9 -5 -23 -4 -32 1 -11 6
-19 6 -23 -1 -4 -6 -11 -7 -17 -4 -14 9 -124 8 -138 -1 -5 -3 -10 -2 -10 2 0
9 -79 8 -87 -1 -3 -3 -16 -1 -29 4 -16 6 -24 6 -24 -1 0 -6 -7 -6 -19 1 -14 7
-22 7 -26 0 -4 -7 -11 -7 -18 -2 -7 5 -21 6 -32 2 -11 -4 -30 -4 -42 1 -15 5
-23 5 -23 -2 0 -6 -7 -6 -19 1 -12 6 -22 6 -26 1 -5 -10 -36 -7 -54 4 -5 3
-12 1 -15 -4 -3 -5 -21 -5 -41 -1 -19 4 -35 4 -35 0 0 -5 -13 -5 -30 0 -17 5
-30 5 -30 0 0 -5 -14 -5 -31 0 -29 9 -31 8 -26 -15z"/>
</g>
</svg>
