<?xml version="1.0" standalone="no"?>
<!DOCTYPE svg PUBLIC "-//W3C//DTD SVG 20010904//EN"
 "http://www.w3.org/TR/2001/REC-SVG-20010904/DTD/svg10.dtd">
<svg version="1.0" xmlns="http://www.w3.org/2000/svg"
 width="1600.000000pt" height="1600.000000pt" viewBox="0 0 1600.000000 1600.000000"
 preserveAspectRatio="xMidYMid meet">
<metadata>
Created by potrace 1.11, written by Peter Selinger 2001-2013
</metadata>
<g transform="translate(0.000000,1600.000000) scale(0.100000,-0.100000)"
fill="#000000" stroke="none">
<path d="M849 11993 c-12 -136 -20 -179 -45 -257 -71 -216 -240 -406 -449
-503 -16 -8 -37 -18 -46 -23 -33 -17 -197 -53 -251 -54 l-58 -1 0 -192 0 -192
30 -21 c16 -12 30 -19 30 -15 0 3 17 -6 37 -20 21 -14 41 -25 44 -25 4 0 38
-17 76 -38 37 -21 112 -62 167 -91 54 -29 114 -62 135 -73 20 -11 79 -43 131
-71 52 -28 107 -58 121 -66 l27 -16 -137 -70 c-75 -39 -137 -73 -139 -77 -2
-5 -12 -8 -22 -8 -10 0 -20 -3 -22 -7 -1 -5 -52 -33 -113 -63 -60 -30 -112
-57 -115 -60 -3 -3 -59 -33 -125 -66 l-120 -62 -3 -354 -2 -353 77 -41 c43
-23 105 -56 138 -74 96 -52 174 -94 260 -140 44 -24 114 -62 155 -84 41 -23
96 -52 122 -66 l47 -24 -87 -48 c-48 -26 -98 -54 -112 -62 -14 -8 -54 -29 -90
-47 -36 -18 -67 -36 -70 -39 -3 -3 -34 -20 -70 -39 -36 -18 -87 -46 -115 -61
-27 -15 -79 -43 -115 -61 -36 -19 -67 -36 -70 -39 -3 -3 -18 -12 -35 -20 l-30
-16 -3 -355 -2 -355 42 -18 c24 -11 50 -24 58 -31 8 -7 61 -37 118 -66 56 -30
130 -69 165 -88 34 -18 81 -44 104 -56 23 -12 49 -28 58 -35 8 -7 15 -9 15 -6
0 4 12 -1 27 -12 16 -10 51 -30 78 -44 28 -14 69 -36 92 -49 l43 -23 -58 -31
c-31 -17 -97 -53 -147 -79 -49 -27 -108 -59 -130 -71 -228 -125 -351 -189
-358 -187 -4 1 -7 -2 -7 -6 0 -5 -23 -19 -50 -31 l-50 -23 2 -355 3 -355 100
-55 c55 -30 134 -72 175 -95 119 -64 208 -112 300 -162 47 -25 113 -60 148
-78 34 -18 61 -36 59 -41 -1 -5 -63 -41 -138 -80 -74 -40 -140 -75 -146 -79
-6 -4 -44 -25 -84 -46 -41 -22 -101 -54 -134 -71 -33 -18 -78 -43 -100 -54
-22 -12 -43 -26 -47 -32 -4 -5 -8 -7 -8 -2 0 4 -18 -4 -40 -18 -23 -14 -52
-30 -65 -35 l-25 -10 0 -193 0 -194 73 -6 c87 -8 106 -12 171 -33 28 -10 52
-16 54 -15 3 2 145 -71 152 -79 3 -3 24 -18 48 -34 189 -128 336 -395 345
-623 l2 -43 7161 0 7161 0 6 63 c4 34 9 72 12 85 3 12 7 32 10 45 17 80 86
221 148 302 34 44 115 125 167 167 66 51 223 126 305 144 53 12 117 24 123 23
4 -1 19 -1 35 0 l27 1 0 193 c0 216 3 206 -75 244 -41 20 -155 81 -255 136
-30 17 -68 37 -85 45 -16 8 -38 22 -47 30 -10 8 -18 11 -18 7 0 -4 -9 0 -20
10 -11 10 -20 14 -20 9 0 -5 -4 -4 -8 1 -4 6 -18 16 -32 22 -22 11 -81 44
-150 83 -14 8 -27 15 -30 15 -3 0 -14 5 -24 11 -17 10 -11 16 50 48 38 21 76
42 84 47 8 5 27 15 43 22 15 6 27 15 27 19 0 4 9 8 20 8 11 0 20 5 20 10 0 6
6 10 13 10 7 0 29 11 50 25 20 14 37 23 37 21 0 -3 26 10 58 28 31 18 95 54
142 79 47 24 114 61 150 80 l65 36 3 365 c2 321 0 366 -13 366 -8 0 -15 5 -15
11 0 5 -4 8 -9 4 -5 -3 -12 -1 -15 4 -4 5 -49 31 -101 57 -52 27 -95 52 -95
56 0 4 -8 8 -18 8 -10 0 -22 4 -27 9 -6 5 -39 25 -75 44 -131 69 -185 99 -197
109 -7 6 -13 7 -13 3 0 -5 -8 -1 -17 7 -10 9 -55 35 -101 58 -94 49 -95 41 23
105 39 21 88 48 110 60 34 19 98 53 286 152 19 10 36 20 39 23 3 3 34 20 70
38 36 18 88 45 115 61 l50 28 3 364 2 365 -27 11 c-16 6 -59 29 -98 50 -122
68 -197 109 -295 161 -52 27 -120 64 -150 81 -30 17 -80 43 -110 58 -30 16
-56 31 -58 36 -2 4 -10 7 -17 7 -31 0 -21 18 23 42 173 93 210 113 237 128 16
9 73 40 125 68 52 28 129 69 170 91 41 23 103 55 138 73 l62 33 0 361 0 362
-142 78 c-79 42 -165 89 -193 104 -27 15 -84 45 -125 66 -41 22 -77 41 -80 44
-3 3 -34 20 -70 39 -167 87 -170 89 -157 99 13 11 49 31 192 107 90 48 173 92
275 148 30 16 61 34 68 40 6 5 12 6 12 2 0 -5 8 -1 17 7 10 8 60 37 111 64
l92 49 0 187 c0 104 -3 188 -7 189 -23 3 -63 8 -103 12 -176 21 -357 112 -490
248 -87 88 -108 118 -155 214 -55 115 -83 212 -90 315 -2 19 -3 41 -4 48 -1 9
-1438 12 -7151 12 -3932 0 -7150 -3 -7151 -7z m522 -473 c18 5 29 5 29 -1 0
-6 5 -7 11 -3 6 3 39 6 74 6 35 0 68 -3 74 -6 6 -4 11 -4 11 1 0 4 16 8 35 8
19 0 35 -4 35 -8 0 -5 5 -5 11 -1 6 3 39 6 74 6 35 0 68 -3 74 -6 6 -4 11 -3
11 3 0 6 11 6 30 1 18 -5 30 -5 30 0 0 6 10 6 25 0 15 -6 27 -6 30 0 3 6 15 6
30 0 15 -6 27 -6 30 0 3 6 15 6 30 0 15 -6 27 -6 30 0 3 6 15 6 30 0 15 -6 27
-6 30 1 4 6 13 6 23 0 10 -6 23 -6 34 0 10 6 19 5 23 -1 3 -5 15 -6 28 -1 12
5 34 5 49 0 16 -4 28 -4 28 1 0 6 10 6 25 0 15 -6 27 -6 30 0 3 6 15 6 30 0
15 -6 27 -6 30 0 4 6 13 7 24 1 10 -6 23 -6 31 -1 8 5 21 5 31 -1 11 -6 20 -5
24 1 4 6 12 7 22 1 9 -4 31 -5 49 -1 19 4 34 4 34 0 0 -5 14 -5 30 0 19 5 30
5 30 -1 0 -6 5 -7 11 -3 6 3 39 6 74 6 35 0 68 -3 74 -6 6 -4 11 -4 11 1 0 4
16 8 35 8 19 0 35 -4 35 -8 0 -5 5 -5 11 -1 6 3 39 6 74 6 35 0 68 -3 74 -6 6
-4 11 -3 11 3 0 6 11 6 30 1 18 -5 30 -5 30 0 0 6 10 6 25 0 15 -6 27 -6 30 0
3 6 15 6 30 0 15 -6 27 -6 30 0 3 6 15 6 30 0 15 -6 27 -6 30 0 3 6 15 6 30 0
15 -6 27 -6 30 1 4 6 13 6 23 0 10 -6 23 -6 34 0 10 6 19 5 23 -1 3 -5 15 -6
28 -1 12 5 34 5 49 0 16 -4 28 -4 28 1 0 6 10 6 25 0 15 -6 27 -6 30 0 3 6 15
6 30 0 15 -6 27 -6 30 0 4 6 13 7 24 1 10 -6 23 -6 31 -1 8 5 21 5 31 -1 11
-6 20 -5 24 1 4 6 12 7 22 1 9 -4 31 -5 49 -1 19 4 34 4 34 0 0 -5 14 -5 30 0
19 5 30 5 30 -1 0 -6 5 -7 11 -3 6 3 39 6 74 6 35 0 68 -3 74 -6 6 -4 11 -4
11 1 0 4 16 8 35 8 19 0 35 -4 35 -8 0 -5 5 -5 11 -1 6 3 39 6 74 6 35 0 68
-3 74 -6 6 -4 11 -3 11 3 0 6 11 6 30 1 18 -5 30 -5 30 0 0 6 10 6 25 0 15 -6
27 -6 30 0 3 6 15 6 30 0 15 -6 27 -6 30 0 3 6 15 6 30 0 15 -6 27 -6 30 0 3
6 15 6 30 0 15 -6 27 -6 30 1 4 6 13 6 23 0 10 -6 23 -6 34 0 10 6 19 5 23 -1
3 -5 15 -6 28 -1 12 5 34 5 49 0 16 -4 28 -4 28 1 0 6 10 6 25 0 15 -6 27 -6
30 0 3 6 15 6 30 0 15 -6 27 -6 30 0 4 6 13 7 24 1 10 -6 23 -6 31 -1 8 5 21
5 31 -1 11 -6 20 -5 24 1 4 7 12 7 25 0 12 -7 27 -7 44 0 14 5 26 6 26 2 0 -4
16 -7 35 -7 19 0 35 3 35 7 0 4 10 4 23 -1 12 -5 32 -5 45 0 12 5 22 5 22 1 0
-4 16 -7 35 -7 19 0 35 3 35 7 0 4 10 4 23 -1 12 -5 32 -5 45 0 12 5 22 5 22
1 0 -4 16 -7 35 -7 19 0 35 3 35 7 0 4 13 3 29 -2 15 -4 34 -4 42 0 7 5 20 5
30 0 9 -5 19 -7 22 -4 7 8 266 8 274 1 3 -4 14 -2 24 3 11 7 20 7 24 0 3 -6
15 -6 30 0 15 6 27 6 30 0 3 -6 15 -6 30 0 15 6 25 6 25 0 0 -5 12 -5 30 0 19
5 30 5 30 -1 0 -6 5 -7 11 -3 6 3 39 6 74 6 35 0 68 -3 74 -6 6 -4 11 -4 11 1
0 9 78 8 87 -1 3 -3 14 -1 24 4 11 7 20 7 24 0 3 -6 15 -6 30 0 15 6 27 6 30
0 3 -6 15 -6 30 0 15 6 25 6 25 0 0 -5 12 -5 30 0 19 5 30 5 30 -1 0 -6 5 -7
11 -3 6 3 39 6 74 6 35 0 68 -3 74 -6 6 -4 11 -4 11 1 0 9 78 8 87 -1 3 -3 14
-1 24 4 12 7 20 7 24 0 4 -7 12 -7 23 -1 10 6 23 6 34 0 10 -5 27 -5 42 1 14
5 26 6 26 2 0 -4 16 -7 35 -7 19 0 35 3 35 7 0 4 10 4 23 -1 12 -5 32 -5 45 0
12 5 22 5 22 1 0 -4 16 -7 35 -7 19 0 35 3 35 7 0 4 10 4 23 -1 12 -5 32 -5
45 0 12 5 22 5 22 1 0 -4 16 -7 35 -7 19 0 35 3 35 7 0 4 13 3 29 -2 15 -4 34
-4 42 0 7 5 20 5 30 0 9 -5 19 -7 22 -4 7 7 116 9 123 1 3 -3 17 -2 30 3 14 6
26 6 29 0 3 -5 15 -6 28 -1 12 5 34 5 49 0 16 -4 28 -4 28 1 0 6 10 6 25 0 15
-6 27 -6 30 0 3 6 15 6 30 0 15 -6 27 -6 30 1 4 6 13 6 23 0 9 -5 23 -6 32 -1
9 5 22 5 30 0 8 -5 21 -5 31 1 11 6 20 5 24 -1 3 -6 15 -6 30 0 13 5 26 6 29
2 2 -4 22 -6 43 -5 97 8 113 7 113 0 0 -5 5 -5 11 -1 14 8 134 8 148 0 6 -4
11 -3 11 3 0 6 11 6 30 1 18 -5 30 -5 30 0 0 6 10 6 25 0 15 -6 27 -6 30 0 3
6 15 6 30 0 15 -6 27 -6 30 0 4 7 13 7 24 0 10 -5 21 -7 24 -4 7 7 87 11 87 4
0 -7 59 -5 66 3 3 3 17 2 30 -3 15 -6 34 -6 49 0 14 5 25 6 25 2 0 -4 16 -7
35 -7 19 0 35 3 35 7 0 4 10 4 23 -1 12 -5 32 -5 45 0 12 5 22 5 22 1 0 -4 16
-7 35 -7 19 0 35 3 35 7 0 4 10 4 23 -1 12 -5 32 -5 45 0 12 5 22 5 22 1 0 -4
16 -7 35 -7 19 0 35 3 35 7 0 4 13 3 29 -2 15 -4 34 -4 42 0 7 5 20 5 30 0 9
-5 19 -7 22 -4 7 8 266 8 274 1 3 -4 14 -2 24 3 11 7 20 7 24 0 3 -6 15 -6 30
0 15 6 27 6 30 0 3 -6 15 -6 30 0 15 6 25 6 25 0 0 -5 12 -5 30 0 19 5 30 5
30 -1 0 -6 5 -7 11 -3 14 8 134 8 148 0 6 -4 11 -4 11 1 0 9 78 8 87 -1 3 -3
14 -1 24 4 11 7 20 7 24 0 3 -6 15 -6 30 0 15 6 27 6 30 0 3 -6 15 -6 30 0 15
6 25 6 25 0 0 -5 12 -5 30 0 19 5 30 5 30 -1 0 -6 5 -7 11 -3 6 3 39 6 74 6
35 0 68 -3 74 -6 6 -4 11 -4 11 1 0 9 78 8 87 -1 3 -3 14 -1 24 4 12 7 20 7
24 0 4 -7 12 -7 23 -1 10 6 23 6 34 0 10 -5 27 -5 42 1 14 5 26 6 26 2 0 -4
16 -7 35 -7 19 0 35 3 35 7 0 4 10 4 23 -1 12 -5 32 -5 45 0 12 5 22 5 22 1 0
-4 16 -7 35 -7 19 0 35 3 35 7 0 4 10 4 23 -1 12 -5 32 -5 45 0 12 5 22 5 22
1 0 -4 16 -7 35 -7 19 0 35 3 35 7 0 4 13 3 29 -2 15 -4 34 -4 42 0 7 5 20 5
30 0 9 -5 19 -7 22 -4 7 7 116 9 123 1 3 -3 17 -2 30 3 14 6 26 6 29 0 3 -5
15 -6 28 -1 12 5 34 5 49 0 16 -4 28 -4 28 1 0 6 10 6 25 0 15 -6 27 -6 30 0
3 6 15 6 30 0 15 -6 27 -6 30 1 4 6 13 6 23 0 9 -5 23 -6 32 -1 9 5 22 5 30 0
8 -5 21 -5 31 1 11 6 20 5 24 -1 3 -6 15 -6 30 0 13 5 26 6 29 2 2 -4 22 -6
43 -5 97 8 113 7 113 0 0 -5 5 -5 11 -1 14 8 134 8 148 0 6 -4 11 -3 11 3 0 6
11 6 30 1 18 -5 30 -5 30 0 0 6 10 6 25 0 15 -6 27 -6 30 0 3 6 15 6 30 0 15
-6 27 -6 30 0 4 7 13 7 24 0 10 -5 21 -7 24 -4 7 7 87 11 87 4 0 -7 59 -5 66
3 3 3 17 2 30 -3 15 -6 34 -6 49 0 14 5 25 6 25 2 0 -4 16 -7 35 -7 19 0 35 3
35 7 0 4 10 4 23 -1 12 -5 32 -5 45 0 12 5 22 5 22 1 0 -4 16 -7 35 -7 19 0
35 3 35 7 0 4 10 4 23 -1 12 -5 32 -5 45 0 12 5 22 5 22 1 0 -4 16 -7 35 -7
19 0 35 3 35 7 0 4 13 3 29 -2 15 -4 34 -4 42 0 7 5 20 5 30 0 9 -5 19 -7 22
-4 7 8 266 8 274 1 3 -4 14 -2 24 3 11 7 20 7 24 0 3 -6 15 -6 30 0 15 6 27 6
30 0 3 -6 15 -6 30 0 15 6 25 6 25 0 0 -5 12 -5 30 0 19 5 30 5 30 -1 0 -6 5
-7 11 -3 14 8 134 8 148 0 6 -4 11 -4 11 1 0 9 78 8 87 -1 3 -3 14 -1 24 4 11
7 20 7 24 0 3 -6 15 -6 30 0 15 6 27 6 30 0 3 -6 15 -6 30 0 15 6 25 6 25 0 0
-5 12 -5 30 0 19 5 30 5 30 -1 0 -6 5 -7 11 -3 14 8 134 8 148 0 6 -4 11 -4
11 1 0 9 78 8 87 -1 3 -3 14 -1 24 4 12 7 20 7 24 0 4 -6 13 -7 24 -1 9 5 23
6 30 2 7 -5 26 -7 42 -5 25 3 31 -1 40 -24 12 -32 64 -138 82 -167 19 -31 90
-137 107 -159 34 -45 178 -184 222 -214 27 -18 48 -36 48 -40 0 -4 -19 -16
-43 -27 -23 -11 -59 -30 -79 -42 -21 -13 -38 -20 -38 -16 0 5 -4 3 -8 -3 -4
-5 -27 -20 -52 -33 -199 -101 -290 -233 -295 -426 -4 -132 37 -242 122 -331
58 -60 71 -68 358 -220 72 -37 171 -89 220 -115 l90 -48 1 -45 c1 -24 4 -51 7
-59 7 -20 0 -25 -108 -82 -98 -51 -211 -112 -345 -183 -140 -74 -211 -136
-272 -237 -55 -91 -73 -156 -73 -260 1 -104 20 -173 70 -249 72 -110 94 -125
465 -318 41 -22 89 -48 105 -58 17 -10 38 -19 48 -19 9 -1 17 -5 17 -9 0 -5
17 -17 39 -26 37 -17 69 -60 52 -70 -5 -3 -5 -24 -1 -46 4 -22 4 -40 0 -40 -5
0 -36 -16 -69 -34 -34 -19 -61 -32 -61 -28 0 4 -4 2 -8 -4 -4 -6 -54 -35 -112
-64 -58 -30 -117 -62 -132 -73 -16 -10 -28 -15 -28 -11 0 4 -9 -1 -20 -11 -11
-10 -20 -14 -20 -9 0 5 -4 4 -8 -1 -4 -6 -32 -23 -62 -39 -68 -36 -115 -70
-159 -116 -34 -36 -81 -110 -85 -132 -1 -7 -5 -19 -9 -25 -12 -19 -17 -50 -21
-120 -2 -34 -7 -66 -10 -72 -4 -6 -3 -11 1 -11 5 0 10 -14 11 -30 3 -45 39
-134 76 -187 59 -87 121 -128 446 -295 25 -13 47 -25 50 -28 3 -3 30 -17 60
-33 162 -82 176 -96 159 -159 -4 -16 -3 -28 3 -30 10 -4 2 -13 -36 -45 -8 -7
-18 -13 -20 -13 -3 0 -72 -41 -153 -92 -177 -109 -175 -108 -299 -182 -85 -51
-181 -134 -219 -187 -29 -41 -75 -170 -77 -214 -2 -37 16 -156 29 -194 19 -55
76 -147 112 -179 43 -39 123 -89 248 -153 65 -34 122 -65 126 -69 5 -4 -11
-22 -34 -41 -117 -94 -246 -239 -320 -360 -19 -30 -40 -64 -47 -75 -7 -10 -17
-30 -22 -45 -6 -14 -18 -40 -28 -59 l-17 -35 -6755 0 c-3715 -1 -6760 1 -6767
3 -6 2 -35 51 -63 110 -45 91 -81 153 -100 172 -3 3 -16 21 -30 40 -46 66
-164 190 -180 190 -5 0 -10 4 -10 9 0 5 -23 26 -51 46 -28 20 -47 40 -43 45 9
7 133 74 244 130 105 54 193 145 234 245 23 54 28 81 30 157 0 38 5 68 10 68
5 0 4 6 -1 13 -6 6 -13 26 -16 42 -3 17 -11 44 -18 60 -7 17 -13 35 -15 42 -3
15 -62 101 -85 124 -21 21 -133 99 -142 99 -3 0 -29 13 -57 30 -27 16 -50 27
-50 23 0 -3 -8 0 -17 8 -21 16 -17 14 -198 109 -215 113 -200 102 -201 142 -1
20 -4 43 -7 52 -4 9 -2 16 3 16 5 0 7 6 4 13 -3 9 33 33 108 72 62 32 114 62
116 66 2 5 10 9 18 9 8 0 31 11 52 24 20 12 48 27 62 31 14 4 27 11 30 15 3 4
39 24 80 45 90 47 132 76 185 130 57 57 104 132 120 192 5 16 10 35 12 43 3 8
6 53 7 100 4 134 -39 243 -139 346 -14 14 -132 94 -140 94 -3 0 -61 31 -128
69 -67 38 -180 102 -252 143 -142 80 -140 78 -134 174 2 27 10 35 73 68 39 20
125 65 191 100 66 35 161 85 210 111 189 99 254 168 304 320 25 77 21 221 -9
300 -44 115 -123 210 -220 262 -25 13 -52 28 -60 34 -8 5 -89 50 -180 101 -91
50 -187 104 -215 120 -27 16 -58 32 -67 35 -19 6 -33 37 -23 52 3 5 1 12 -4
15 -5 4 -6 18 -2 34 4 15 6 33 4 40 -3 6 0 12 6 12 6 0 29 11 51 25 22 14 40
23 40 19 0 -3 12 3 28 14 15 10 59 34 97 53 39 19 72 36 75 39 5 5 51 29 225
119 61 31 165 120 200 172 23 33 55 110 61 144 8 46 10 55 16 61 4 3 5 11 2
18 -3 7 -6 37 -8 67 -5 88 -37 176 -90 244 -58 75 -66 80 -361 254 -33 19 -62
37 -65 39 -5 4 39 44 84 77 35 24 96 85 149 148 23 27 47 55 52 61 37 40 151
236 174 297 8 23 15 27 57 27 25 1 49 4 53 7 3 4 7 2 9 -4 2 -6 14 -6 33 -1z"/>
<path d="M2639 11045 c-2 -2 -51 -6 -109 -9 -134 -7 -187 -16 -275 -47 -95
-34 -235 -106 -235 -121 0 -5 -5 -8 -11 -8 -6 0 -17 -6 -24 -12 -8 -7 -39 -33
-69 -58 -30 -25 -55 -48 -55 -52 -1 -4 -11 -18 -23 -31 -102 -107 -186 -281
-224 -462 -7 -30 -16 -167 -14 -195 1 -14 1 -31 1 -37 -1 -7 -1 -19 -2 -25 0
-13 0 -100 1 -130 0 -10 0 -26 0 -35 0 -10 0 -78 0 -150 -1 -73 1 -137 4 -142
4 -5 2 -12 -3 -15 -5 -4 -6 -18 -2 -34 5 -15 5 -36 1 -47 -4 -11 -4 -34 0 -52
4 -18 5 -35 2 -38 -7 -6 -5 -112 2 -123 2 -4 1 -14 -3 -21 -5 -7 -5 -30 -1
-51 4 -22 5 -42 2 -45 -3 -3 -5 -26 -4 -53 2 -57 2 -121 -1 -185 -1 -26 1 -47
5 -47 4 0 4 -10 -1 -22 -4 -12 -5 -37 -1 -55 4 -17 5 -35 2 -38 -7 -6 -5 -112
2 -123 2 -4 1 -14 -3 -21 -5 -7 -5 -30 -1 -51 4 -22 5 -42 2 -45 -3 -3 -5 -31
-3 -63 3 -68 3 -98 2 -134 -2 -70 -3 -84 -2 -98 1 -8 1 -26 0 -40 0 -14 0 -32
0 -40 2 -19 0 -59 -3 -85 -1 -11 1 -31 5 -45 3 -14 3 -34 -1 -45 -4 -11 -4
-29 0 -41 5 -11 5 -26 1 -33 -5 -7 -5 -30 -1 -52 4 -21 5 -39 1 -39 -7 0 -5
-104 2 -124 3 -7 2 -18 -2 -25 -5 -7 -5 -30 -1 -52 4 -21 5 -39 1 -39 -6 0 -5
-80 2 -137 3 -18 1 -33 -3 -33 -4 0 -4 -18 0 -40 4 -22 4 -40 0 -40 -4 0 -4
-18 0 -40 4 -22 4 -43 0 -45 -4 -3 -4 -21 0 -40 4 -19 4 -35 0 -35 -4 0 -4
-18 0 -39 4 -22 4 -45 0 -52 -4 -6 -4 -24 0 -39 4 -15 4 -33 0 -40 -4 -7 -4
-24 0 -39 4 -14 4 -35 0 -46 -4 -11 -4 -30 1 -41 4 -12 5 -25 2 -28 -7 -7 -7
-101 0 -113 2 -4 1 -17 -3 -28 -4 -11 -4 -29 0 -41 5 -11 5 -26 1 -33 -5 -7
-5 -30 -1 -52 4 -21 5 -39 1 -39 -7 0 -5 -104 2 -124 3 -7 2 -18 -2 -25 -5 -7
-5 -30 -1 -52 4 -21 5 -39 1 -39 -3 0 -5 -24 -3 -52 1 -29 2 -74 2 -100 0 -27
0 -56 0 -65 0 -10 0 -29 -1 -43 -2 -49 10 -210 16 -220 3 -4 7 -25 11 -46 14
-89 84 -242 157 -344 122 -169 348 -326 526 -365 11 -3 31 -8 44 -11 76 -19
285 -33 306 -20 5 4 12 3 15 -2 2 -4 32 -5 66 -2 34 3 64 2 66 -2 3 -5 9 -6
13 -3 9 5 69 6 214 4 54 -1 100 0 102 3 2 2 28 1 58 -2 29 -3 67 -3 85 1 18 4
34 4 36 0 3 -4 32 -4 66 -1 34 3 64 2 66 -2 3 -5 9 -6 13 -3 9 5 60 6 211 5
52 -1 100 0 105 1 6 1 13 1 17 0 4 0 47 -1 95 -1 114 1 105 1 273 1 80 0 152
0 160 0 8 0 62 0 120 0 58 1 112 0 120 0 98 -4 331 -1 339 3 5 4 12 3 15 -2 2
-4 32 -5 66 -2 34 3 64 2 66 -2 3 -5 9 -6 13 -3 9 5 60 6 211 5 52 -1 100 -1
105 0 6 1 44 1 85 0 41 0 158 0 260 0 102 1 192 1 200 1 14 0 293 0 315 0 6 0
65 -1 132 -1 67 -1 127 1 132 4 5 4 12 3 15 -2 2 -4 32 -5 66 -2 34 3 64 2 66
-2 3 -5 9 -6 13 -3 9 5 69 6 214 4 54 -1 100 0 102 3 2 2 28 1 58 -2 29 -3 67
-3 85 1 18 4 34 4 36 0 3 -4 32 -4 66 -1 34 3 64 2 66 -2 3 -5 9 -6 13 -3 9 5
60 6 211 5 52 -1 100 0 105 1 6 1 13 1 17 0 4 0 47 -1 95 -1 114 1 105 1 273
1 80 0 152 0 160 0 8 0 62 0 120 0 58 1 112 0 120 0 98 -4 331 -1 339 3 5 4
12 3 15 -2 2 -4 32 -5 66 -2 34 3 64 2 66 -2 3 -5 9 -6 13 -3 9 5 60 6 211 5
52 -1 100 -1 105 0 6 1 44 1 85 0 41 0 158 0 260 0 102 1 192 1 200 1 15 0
297 0 315 0 14 0 295 0 320 0 11 0 85 0 165 0 80 0 152 0 160 0 8 0 62 0 120
0 58 1 112 0 120 0 98 -4 331 -1 339 3 5 4 12 3 15 -2 2 -4 32 -5 66 -2 34 3
64 2 66 -2 3 -5 9 -6 13 -3 9 5 60 6 211 5 52 -1 100 -1 105 0 6 1 44 1 85 0
41 0 158 0 260 0 102 1 192 1 200 1 14 0 293 0 315 0 6 0 65 -1 132 -1 67 -1
127 1 132 4 5 4 12 3 15 -2 2 -4 32 -5 66 -2 34 3 64 2 66 -2 3 -5 9 -6 13 -3
9 5 60 6 211 5 52 -1 97 -1 100 -1 3 1 56 3 118 6 62 2 116 6 121 9 4 3 23 8
42 11 44 7 175 54 217 77 120 67 145 84 211 145 25 24 49 43 54 43 4 0 7 4 7
10 0 5 10 20 23 33 101 107 185 281 223 462 7 30 16 167 14 195 -1 14 -1 31
-1 38 1 6 1 18 2 25 0 12 0 99 -1 130 0 9 0 25 0 35 0 9 0 78 0 153 1 74 0
139 -1 145 -1 5 0 14 1 19 1 6 1 35 0 65 0 30 -1 61 -1 68 1 6 1 18 2 25 0 12
0 99 -1 130 0 9 0 25 0 35 0 9 0 77 0 149 1 73 -1 137 -4 142 -4 5 -2 12 3 15
5 4 6 18 2 34 -5 15 -5 36 -1 47 4 11 4 34 0 52 -4 18 -5 35 -2 38 7 6 5 112
-2 123 -2 4 -1 14 3 21 5 7 5 30 1 51 -4 22 -5 42 -2 45 3 3 5 31 3 63 -3 68
-3 98 -2 135 2 69 3 83 2 97 -1 8 -1 26 0 40 0 14 0 32 0 40 -2 19 0 59 3 85
1 11 -1 31 -5 45 -3 14 -3 34 1 45 4 11 4 29 0 41 -5 11 -5 26 -1 33 5 7 5 30
1 52 -4 21 -5 39 -1 39 7 0 5 104 -2 124 -3 7 -2 18 2 25 5 7 5 30 1 52 -4 21
-5 39 -1 39 6 0 5 80 -2 138 -3 17 -1 32 3 32 4 0 4 18 0 40 -4 22 -4 40 0 40
4 0 4 18 0 40 -4 22 -4 43 0 45 4 3 4 21 0 40 -4 19 -5 35 -1 35 7 0 4 107 -3
127 -3 7 -1 15 4 18 5 3 5 18 1 33 -5 15 -5 36 -1 47 4 11 4 34 0 52 -4 18 -5
35 -2 38 7 6 5 112 -2 123 -2 4 -1 14 3 21 5 7 5 30 1 51 -4 22 -5 42 -2 45 7
7 5 112 -2 123 -2 4 -1 14 3 21 5 7 5 30 1 51 -4 22 -5 42 -2 45 3 3 5 31 3
63 -1 31 -2 63 -2 70 1 6 1 18 2 25 0 6 0 32 0 57 0 25 -1 53 -1 63 0 57 1 68
1 80 2 21 -10 160 -16 192 -13 70 -47 179 -67 218 -12 23 -23 48 -24 54 -5 31
-114 175 -183 243 -162 161 -365 256 -586 275 -89 8 -172 8 -184 1 -5 -4 -12
-3 -15 2 -2 4 -32 5 -66 2 -34 -3 -64 -2 -66 2 -3 5 -9 6 -13 3 -9 -5 -60 -6
-211 -5 -52 1 -99 1 -105 0 -5 -1 -44 -1 -85 0 -282 2 -390 1 -399 -4 -5 -4
-12 -3 -15 2 -2 4 -32 5 -66 2 -34 -3 -64 -2 -66 2 -3 5 -9 6 -13 3 -9 -5 -60
-6 -211 -5 -52 1 -99 1 -105 0 -5 -1 -44 -1 -85 0 -282 2 -390 1 -399 -4 -5
-4 -12 -3 -15 2 -2 4 -32 5 -66 2 -34 -3 -64 -2 -66 2 -3 5 -9 6 -13 3 -9 -5
-60 -6 -211 -5 -52 1 -99 1 -105 0 -5 -1 -44 -1 -85 0 -282 2 -390 1 -399 -4
-5 -4 -12 -3 -15 2 -2 4 -32 5 -66 2 -34 -3 -64 -2 -66 2 -3 5 -9 6 -13 3 -9
-5 -60 -6 -211 -5 -52 1 -99 1 -105 0 -5 -1 -44 -1 -85 0 -282 2 -390 1 -399
-4 -5 -4 -12 -3 -15 2 -2 4 -32 5 -66 2 -34 -3 -64 -2 -66 2 -3 5 -9 6 -13 3
-9 -5 -60 -6 -211 -5 -52 1 -99 1 -105 0 -5 -1 -44 -1 -85 0 -282 2 -390 1
-399 -4 -5 -4 -12 -3 -15 2 -2 4 -32 5 -66 2 -34 -3 -64 -2 -66 2 -3 5 -9 6
-13 3 -9 -5 -60 -6 -211 -5 -52 1 -99 1 -105 0 -5 -1 -44 -1 -85 0 -282 2
-390 1 -399 -4 -5 -4 -12 -3 -15 2 -2 4 -32 5 -66 2 -34 -3 -64 -2 -66 2 -3 5
-9 6 -13 3 -9 -5 -60 -6 -211 -5 -52 1 -99 1 -105 0 -5 -1 -44 -1 -85 0 -282
2 -390 1 -399 -4 -5 -4 -12 -3 -15 2 -2 4 -32 5 -66 2 -34 -3 -64 -2 -66 2 -3
5 -9 6 -13 3 -9 -5 -60 -6 -211 -5 -52 1 -99 1 -105 0 -5 -1 -44 -1 -85 0
-282 2 -390 1 -399 -4 -5 -4 -12 -3 -15 2 -2 4 -32 5 -66 2 -34 -3 -64 -2 -66
2 -3 5 -9 6 -13 3 -9 -5 -60 -6 -211 -5 -52 1 -99 0 -105 -1 -5 -1 -13 -1 -17
0 -4 0 -47 1 -95 1 -114 -1 -105 -1 -273 -1 -80 0 -149 0 -155 0 -14 0 -295 0
-320 0 -21 0 -303 0 -320 0 -14 0 -295 0 -320 0 -21 0 -303 0 -320 0 -10 0
-289 0 -315 0 -107 1 -297 1 -338 1 -29 -1 -56 2 -61 4 -4 3 -10 4 -12 1z m12
-485 c16 5 29 5 29 0 0 -5 13 -5 30 0 17 5 30 5 30 0 0 -5 13 -5 30 0 17 5 30
6 30 2 0 -4 16 -7 35 -7 19 0 35 3 35 7 0 4 14 3 30 -2 17 -5 30 -5 30 0 0 5
13 5 30 0 17 -5 30 -5 30 0 0 5 13 5 30 0 17 -5 30 -5 30 0 0 5 13 5 30 0 17
-5 30 -5 30 0 0 4 12 5 27 1 14 -4 48 -4 75 -1 26 4 48 3 48 -1 0 -4 14 -4 30
1 17 5 30 5 30 0 0 -5 13 -5 30 0 17 5 30 5 30 0 0 -5 13 -5 30 0 17 5 30 6
30 2 0 -4 16 -7 35 -7 19 0 35 3 35 7 0 4 14 3 30 -2 17 -5 30 -5 30 0 0 5 13
5 30 0 17 -5 30 -5 30 0 0 5 13 5 30 0 17 -5 30 -5 30 0 0 5 13 5 30 0 17 -5
30 -5 30 0 0 4 12 5 27 1 14 -4 48 -4 75 -1 26 4 48 3 48 -1 0 -4 14 -4 30 1
17 5 30 5 30 0 0 -5 13 -5 30 0 17 5 30 5 30 0 0 -5 13 -5 30 0 17 5 30 6 30
2 0 -4 16 -7 35 -7 19 0 35 3 35 7 0 4 14 3 30 -2 17 -5 30 -5 30 0 0 5 13 5
30 0 17 -5 30 -5 30 0 0 5 13 5 30 0 17 -5 30 -5 30 0 0 5 13 5 30 0 17 -5 30
-5 30 0 0 4 12 5 27 1 14 -4 48 -4 75 -1 26 4 48 3 48 -1 0 -4 14 -4 30 1 17
5 30 5 30 0 0 -5 13 -5 30 0 17 5 30 5 30 0 0 -5 13 -5 30 0 17 5 30 6 30 2 0
-4 16 -7 35 -7 19 0 35 3 35 7 0 4 14 3 30 -2 17 -5 30 -5 30 0 0 5 13 5 30 0
17 -5 30 -5 30 0 0 5 13 5 30 0 17 -5 30 -5 30 0 0 5 13 5 30 0 17 -5 30 -5
30 0 0 5 12 5 28 1 15 -4 43 -4 62 -1 19 3 42 3 51 -1 8 -4 21 -4 29 1 8 5 21
5 30 0 9 -5 22 -5 29 0 8 4 27 4 42 0 16 -5 29 -5 29 0 0 5 13 5 30 0 17 -5
30 -5 30 0 0 5 13 5 30 0 17 -5 30 -5 30 0 0 5 13 5 30 0 17 -5 30 -5 30 0 0
5 13 5 30 0 17 -5 30 -6 30 -2 0 4 16 7 35 7 19 0 35 -3 35 -7 0 -4 14 -3 30
2 17 5 30 6 30 2 0 -8 94 -7 107 1 5 3 15 2 23 -3 7 -4 23 -4 36 0 12 5 25 6
28 3 8 -8 76 -10 76 -2 0 4 16 3 35 -1 19 -4 35 -5 35 -1 0 3 21 5 47 3 27 -1
54 -3 61 -2 6 0 19 0 27 0 8 0 22 0 30 0 8 0 22 0 30 0 8 0 22 0 30 0 8 0 22
0 30 0 8 0 22 0 30 0 8 0 22 0 30 0 8 0 22 0 30 0 8 0 22 0 30 0 8 0 22 0 30
0 8 0 22 0 30 0 8 0 22 0 30 0 8 0 22 0 30 0 8 0 22 0 30 0 8 0 22 0 30 0 8 0
22 0 30 0 8 0 21 0 28 0 6 0 33 0 58 -1 25 -1 50 0 55 4 6 3 16 2 24 -3 7 -4
23 -4 36 0 12 5 25 6 28 3 8 -8 76 -10 76 -2 0 4 16 3 35 -1 19 -4 35 -5 35
-1 0 7 85 5 97 -2 5 -3 15 -2 23 3 8 5 21 5 30 0 9 -5 22 -5 29 0 8 4 27 4 42
0 16 -5 29 -5 29 0 0 5 13 5 30 0 17 -5 30 -5 30 0 0 5 13 5 30 0 17 -5 30 -5
30 0 0 5 13 5 30 0 17 -5 30 -5 30 0 0 5 13 5 30 0 16 -5 30 -6 30 -2 0 4 16
7 35 7 19 0 35 -3 35 -7 0 -4 13 -3 30 2 16 5 30 6 30 2 0 -8 94 -7 107 1 5 3
15 2 23 -3 7 -4 23 -4 36 0 12 5 25 6 28 3 8 -8 76 -10 76 -2 0 4 16 3 35 -1
19 -4 35 -5 35 -1 0 3 21 5 47 3 27 -1 54 -3 61 -2 6 0 19 0 27 0 8 0 22 0 30
0 8 0 22 0 30 0 8 0 22 0 30 0 8 0 22 0 30 0 8 0 22 0 30 0 8 0 22 0 30 0 8 0
22 0 30 0 8 0 22 0 30 0 8 0 22 0 30 0 8 0 22 0 30 0 8 0 22 0 30 0 8 0 22 0
30 0 8 0 22 0 30 0 8 0 22 0 30 0 8 0 22 0 30 0 8 0 21 0 28 0 6 0 33 0 58 -1
25 -1 50 0 55 4 6 3 16 2 24 -3 7 -4 23 -4 36 0 12 5 25 6 28 3 8 -8 76 -10
76 -2 0 4 16 3 35 -1 19 -4 35 -5 35 -1 0 7 85 5 97 -2 5 -3 15 -2 23 3 8 5
21 5 30 0 9 -5 22 -5 29 0 8 4 27 4 42 0 16 -5 29 -5 29 0 0 5 13 5 30 0 17
-5 30 -5 30 0 0 5 13 5 30 0 17 -5 30 -5 30 0 0 5 13 5 30 0 17 -5 30 -5 30 0
0 5 13 5 30 0 17 -5 30 -6 30 -2 0 4 16 7 35 7 19 0 35 -3 35 -7 0 -4 14 -3
30 2 16 5 30 6 30 2 0 -8 94 -7 107 1 5 3 15 2 23 -3 7 -4 23 -4 36 0 12 5 25
6 28 3 8 -8 76 -10 76 -2 0 4 16 3 35 -1 19 -4 35 -5 35 -1 0 3 21 5 47 3 27
-1 54 -3 61 -2 6 0 19 0 27 0 8 0 22 0 30 0 8 0 22 0 30 0 8 0 22 0 30 0 8 0
22 0 30 0 8 0 22 0 30 0 8 0 22 0 30 0 8 0 22 0 30 0 8 0 22 0 30 0 8 0 22 0
30 0 8 0 22 0 30 0 8 0 22 0 30 0 8 0 22 0 30 0 8 0 22 0 30 0 8 0 22 0 30 0
8 0 22 0 30 0 8 0 21 0 28 0 6 0 33 0 58 -1 25 -1 50 0 55 4 6 3 16 2 24 -3 7
-4 23 -4 36 0 12 5 25 6 28 3 8 -8 76 -10 76 -2 0 4 16 3 35 -1 19 -4 35 -5
35 -1 0 7 85 5 97 -2 5 -3 15 -2 23 3 8 5 21 5 30 0 9 -5 22 -5 29 0 8 4 27 4
42 0 16 -5 29 -5 29 0 0 5 13 5 30 0 17 -5 30 -5 30 0 0 5 13 5 30 0 17 -5 30
-5 30 0 0 5 13 5 30 0 17 -5 30 -5 30 0 0 5 13 5 30 0 17 -5 30 -6 30 -2 0 4
16 7 35 7 19 0 35 -3 35 -7 0 -4 14 -3 30 2 17 5 30 6 30 2 0 -8 94 -7 107 1
5 3 15 2 23 -3 7 -4 23 -4 36 0 12 5 25 6 28 3 8 -8 76 -10 76 -2 0 4 16 3 35
-1 19 -4 35 -5 35 -1 0 3 21 5 47 3 27 -1 54 -3 61 -2 6 0 19 0 27 0 8 0 22 0
30 0 8 0 22 0 30 0 8 0 22 0 30 0 8 0 22 0 30 0 8 0 22 0 30 0 8 0 22 0 30 0
8 0 22 0 30 0 8 0 22 0 30 0 8 0 22 0 30 0 8 0 22 0 30 0 8 0 22 0 30 0 8 0
22 0 30 0 8 0 22 0 30 0 8 0 22 0 30 0 8 0 22 0 30 0 8 0 21 0 28 0 6 0 33 0
58 -1 25 -1 50 0 55 4 6 3 16 2 24 -3 7 -4 23 -4 36 0 12 5 25 6 28 3 8 -8 76
-10 76 -2 0 4 16 3 35 -1 19 -4 35 -5 35 -1 0 7 85 5 97 -2 5 -3 15 -2 23 3 8
5 21 5 30 0 9 -5 22 -5 29 0 8 4 27 4 42 0 16 -5 29 -5 29 0 0 5 13 5 30 0 17
-5 30 -5 30 0 0 5 13 5 30 0 17 -5 30 -5 30 0 0 5 13 5 30 0 17 -5 30 -5 30 0
0 5 13 5 30 0 16 -5 30 -6 30 -2 0 4 16 7 35 7 19 0 35 -3 35 -7 0 -4 13 -3
30 2 16 5 30 6 30 2 0 -4 38 -8 85 -8 46 -1 99 -7 117 -14 164 -61 260 -157
317 -315 6 -16 13 -59 16 -94 3 -36 8 -68 11 -73 3 -4 2 -8 -3 -8 -4 0 -7 -19
-5 -42 4 -63 2 -129 -3 -138 -3 -5 -1 -11 4 -15 7 -3 7 -15 1 -30 -5 -13 -5
-27 -1 -30 5 -3 5 -21 1 -40 -4 -19 -4 -35 0 -35 5 0 5 -13 0 -29 -4 -16 -6
-31 -4 -34 8 -8 10 -74 3 -93 -3 -11 -3 -29 2 -40 4 -12 5 -25 2 -28 -8 -8 -9
-136 -1 -136 4 0 3 -13 -2 -30 -5 -17 -5 -32 0 -35 5 -3 5 -16 0 -30 -6 -15
-6 -27 0 -30 6 -3 6 -15 0 -29 -5 -13 -6 -27 -3 -30 8 -8 8 -74 1 -82 -3 -3
-2 -20 2 -39 4 -19 6 -36 3 -39 -2 -2 -4 -33 -4 -68 1 -34 1 -71 1 -80 0 -10
0 -25 0 -33 0 -8 0 -22 0 -30 0 -8 0 -22 0 -30 0 -8 0 -22 0 -30 0 -8 0 -23 0
-32 0 -10 0 -40 1 -66 1 -27 -1 -51 -4 -54 -3 -3 -2 -15 3 -28 5 -13 6 -26 3
-29 -8 -8 -9 -136 -1 -136 4 0 3 -13 -2 -30 -5 -17 -5 -32 0 -35 5 -3 5 -16 0
-30 -6 -15 -6 -27 0 -30 6 -3 6 -15 0 -29 -5 -13 -6 -27 -3 -30 8 -8 8 -74 1
-82 -3 -3 -2 -20 2 -39 4 -19 6 -36 3 -39 -2 -2 -4 -33 -4 -68 1 -34 1 -71 1
-80 0 -10 0 -25 0 -33 0 -8 0 -22 0 -30 0 -8 0 -22 0 -30 0 -8 0 -22 0 -30 0
-8 0 -23 0 -32 0 -10 0 -40 1 -66 1 -27 -1 -51 -4 -54 -3 -3 -2 -15 3 -28 5
-13 6 -26 3 -29 -8 -8 -9 -136 -1 -136 4 0 3 -13 -2 -30 -5 -17 -5 -32 0 -35
5 -3 5 -16 0 -30 -6 -15 -6 -27 0 -30 6 -3 6 -15 0 -29 -5 -13 -6 -27 -3 -30
6 -5 7 -66 3 -83 -1 -5 -1 -12 0 -18 2 -12 1 -76 -3 -128 -1 -21 1 -43 5 -50
3 -6 3 -18 -2 -27 -5 -9 -5 -22 -1 -29 5 -7 5 -28 1 -47 -4 -19 -4 -34 0 -34
5 0 5 -12 1 -27 -5 -16 -5 -37 -1 -47 3 -11 3 -39 0 -63 -4 -24 -3 -46 1 -49
5 -2 4 -16 -1 -29 -5 -13 -5 -27 -1 -30 5 -3 5 -21 1 -40 -4 -19 -4 -35 0 -35
5 0 5 -12 1 -27 -5 -16 -5 -37 -1 -47 4 -11 4 -37 0 -57 -4 -21 -4 -43 1 -50
4 -7 4 -20 -1 -29 -5 -9 -5 -22 -1 -29 5 -7 5 -28 1 -47 -4 -19 -4 -34 0 -34
5 0 5 -12 1 -27 -5 -16 -5 -37 -1 -47 3 -11 3 -39 0 -63 -4 -24 -3 -46 1 -49
5 -2 4 -16 -1 -29 -6 -15 -6 -27 1 -30 5 -4 7 -9 5 -13 -2 -4 -7 -34 -10 -67
-7 -73 -10 -87 -17 -100 -4 -5 -12 -28 -19 -50 -7 -22 -16 -42 -19 -45 -3 -3
-19 -25 -36 -49 -50 -73 -144 -140 -238 -168 -45 -13 -137 -27 -164 -24 -7 0
-20 1 -28 1 -8 0 -22 0 -30 0 -8 0 -22 0 -30 0 -8 0 -22 0 -30 0 -8 0 -22 0
-30 0 -8 0 -22 0 -30 0 -8 0 -22 0 -30 0 -8 0 -21 0 -27 0 -7 0 -34 0 -59 1
-25 1 -50 0 -55 -4 -6 -3 -16 -2 -24 3 -7 4 -23 4 -36 0 -12 -5 -25 -6 -28 -3
-8 8 -76 10 -76 2 0 -4 -16 -3 -35 1 -19 4 -35 5 -35 1 0 -3 -22 -6 -50 -6
-27 0 -50 3 -50 7 0 4 -14 3 -30 -2 -17 -5 -30 -5 -30 0 0 5 -13 5 -30 0 -17
-5 -30 -5 -30 0 0 5 -13 5 -30 0 -16 -5 -30 -6 -30 -2 0 4 -16 7 -35 7 -19 0
-35 -3 -35 -7 0 -4 -13 -3 -30 2 -17 5 -30 5 -30 0 0 -5 -13 -5 -30 0 -17 5
-30 5 -30 0 0 -5 -13 -5 -30 0 -17 5 -30 5 -30 0 0 -5 -13 -5 -30 0 -19 5 -30
5 -30 -1 0 -6 -4 -7 -10 -4 -13 8 -114 10 -126 2 -5 -3 -16 -2 -24 3 -7 4 -23
4 -36 0 -12 -5 -25 -6 -28 -3 -8 8 -76 10 -76 2 0 -4 -16 -3 -35 1 -19 4 -35
5 -35 1 0 -3 -21 -5 -47 -3 -27 1 -54 3 -60 2 -7 0 -20 0 -28 0 -8 0 -22 0
-30 0 -8 0 -22 0 -30 0 -8 0 -22 0 -30 0 -8 0 -22 0 -30 0 -8 0 -22 0 -30 0
-8 0 -22 0 -30 0 -8 0 -22 0 -30 0 -8 0 -22 0 -30 0 -8 0 -22 0 -30 0 -8 0
-22 0 -30 0 -8 0 -22 0 -30 0 -8 0 -22 0 -30 0 -8 0 -22 0 -30 0 -8 0 -22 0
-30 0 -8 0 -22 0 -30 0 -8 0 -21 0 -27 0 -7 0 -34 0 -59 1 -25 1 -50 0 -55 -4
-6 -3 -16 -2 -24 3 -7 4 -23 4 -36 0 -12 -5 -25 -6 -28 -3 -8 8 -76 10 -76 2
0 -4 -16 -3 -35 1 -19 4 -35 5 -35 1 0 -3 -22 -6 -50 -6 -27 0 -50 3 -50 7 0
4 -13 3 -30 -2 -17 -5 -30 -5 -30 0 0 5 -13 5 -30 0 -17 -5 -30 -5 -30 0 0 5
-13 5 -30 0 -16 -5 -30 -6 -30 -2 0 4 -16 7 -35 7 -19 0 -35 -3 -35 -7 0 -4
-13 -3 -30 2 -17 5 -30 5 -30 0 0 -5 -13 -5 -30 0 -17 5 -30 5 -30 0 0 -5 -13
-5 -30 0 -17 5 -30 5 -30 0 0 -5 -13 -5 -30 0 -16 5 -30 5 -30 0 0 -4 -12 -5
-27 -1 -14 4 -48 4 -75 1 -26 -4 -48 -3 -48 1 0 4 -14 4 -30 -1 -17 -5 -30 -5
-30 0 0 5 -13 5 -30 0 -17 -5 -30 -5 -30 0 0 5 -13 5 -30 0 -16 -5 -30 -6 -30
-2 0 4 -16 7 -35 7 -19 0 -35 -3 -35 -7 0 -4 -14 -3 -30 2 -17 5 -30 5 -30 0
0 -5 -13 -5 -30 0 -17 5 -30 5 -30 0 0 -5 -13 -5 -30 0 -17 5 -30 5 -30 0 0
-5 -13 -5 -30 0 -19 5 -30 5 -30 -1 0 -6 -4 -7 -10 -4 -13 8 -114 10 -126 2
-5 -3 -16 -2 -24 3 -7 4 -23 4 -36 0 -12 -5 -25 -6 -28 -3 -8 8 -76 10 -76 2
0 -4 -16 -3 -35 1 -19 4 -35 5 -35 1 0 -3 -21 -5 -47 -3 -27 1 -54 3 -60 2 -7
0 -20 0 -28 0 -8 0 -22 0 -30 0 -8 0 -22 0 -30 0 -8 0 -22 0 -30 0 -8 0 -22 0
-30 0 -8 0 -22 0 -30 0 -8 0 -22 0 -30 0 -8 0 -22 0 -30 0 -8 0 -22 0 -30 0
-8 0 -22 0 -30 0 -8 0 -22 0 -30 0 -8 0 -22 0 -30 0 -8 0 -22 0 -30 0 -8 0
-22 0 -30 0 -8 0 -22 0 -30 0 -8 0 -22 0 -30 0 -8 0 -21 0 -27 0 -7 0 -34 0
-59 1 -25 1 -50 0 -55 -4 -6 -3 -16 -2 -24 3 -7 4 -23 4 -36 0 -12 -5 -25 -6
-28 -3 -8 8 -76 10 -76 2 0 -4 -16 -3 -35 1 -19 4 -35 5 -35 1 0 -3 -22 -6
-50 -6 -27 0 -50 3 -50 7 0 4 -14 3 -30 -2 -17 -5 -30 -5 -30 0 0 5 -13 5 -30
0 -17 -5 -30 -5 -30 0 0 5 -13 5 -30 0 -17 -5 -30 -6 -30 -2 0 4 -16 7 -35 7
-19 0 -35 -3 -35 -7 0 -4 -14 -3 -30 2 -17 5 -30 5 -30 0 0 -5 -13 -5 -30 0
-17 5 -30 5 -30 0 0 -5 -13 -5 -30 0 -17 5 -30 5 -30 0 0 -5 -13 -5 -30 0 -19
5 -30 5 -30 -1 0 -6 -4 -7 -10 -4 -13 8 -114 10 -126 2 -5 -3 -16 -2 -24 3 -7
4 -23 4 -36 0 -12 -5 -25 -6 -28 -3 -8 8 -76 10 -76 2 0 -4 -16 -3 -35 1 -19
4 -35 5 -35 1 0 -3 -21 -5 -47 -3 -27 1 -54 3 -60 2 -7 0 -20 0 -28 0 -8 0
-22 0 -30 0 -8 0 -22 0 -30 0 -8 0 -22 0 -30 0 -8 0 -22 0 -30 0 -8 0 -22 0
-30 0 -8 0 -22 0 -30 0 -8 0 -22 0 -30 0 -8 0 -22 0 -30 0 -8 0 -22 0 -30 0
-8 0 -22 0 -30 0 -8 0 -22 0 -30 0 -8 0 -22 0 -30 0 -8 0 -22 0 -30 0 -8 0
-22 0 -30 0 -8 0 -22 0 -30 0 -8 0 -21 0 -27 0 -7 0 -34 0 -59 1 -25 1 -50 0
-55 -4 -6 -3 -16 -2 -24 3 -7 4 -23 4 -36 0 -12 -5 -25 -6 -28 -3 -8 8 -76 10
-76 2 0 -4 -16 -3 -35 1 -19 4 -35 5 -35 1 0 -3 -22 -6 -50 -6 -27 0 -50 3
-50 7 0 4 -13 3 -30 -2 -17 -5 -30 -5 -30 0 0 5 -13 5 -30 0 -17 -5 -30 -5
-30 0 0 5 -13 5 -30 0 -16 -5 -30 -6 -30 -2 0 4 -16 7 -35 7 -19 0 -35 -3 -35
-7 0 -4 -13 -3 -30 2 -17 5 -30 5 -30 0 0 -5 -13 -5 -30 0 -17 5 -30 5 -30 0
0 -5 -13 -5 -30 0 -17 5 -30 5 -30 0 0 -5 -13 -5 -30 0 -19 5 -30 5 -30 -1 0
-6 -4 -7 -10 -4 -13 8 -114 10 -126 2 -5 -3 -16 -2 -24 3 -7 4 -23 4 -36 0
-12 -5 -25 -6 -28 -3 -8 8 -76 10 -76 2 0 -4 -16 -3 -35 1 -19 4 -35 5 -35 1
0 -3 -21 -5 -47 -3 -27 1 -54 3 -60 2 -7 0 -20 0 -28 0 -8 0 -22 0 -30 0 -8 0
-22 0 -30 0 -8 0 -22 0 -30 0 -8 0 -22 0 -30 0 -8 0 -22 0 -30 0 -8 0 -22 0
-30 0 -8 0 -22 0 -30 0 -8 0 -22 0 -30 0 -8 0 -22 0 -30 0 -8 0 -22 0 -30 0
-8 0 -22 0 -30 0 -8 0 -22 0 -30 0 -8 0 -22 0 -30 0 -8 0 -22 0 -30 0 -8 0
-22 0 -30 0 -8 0 -21 0 -27 0 -7 0 -34 0 -59 1 -25 1 -50 0 -55 -4 -6 -3 -16
-2 -24 3 -7 4 -23 4 -36 0 -12 -5 -25 -6 -28 -3 -8 8 -76 10 -76 2 0 -4 -16
-3 -35 1 -19 4 -35 5 -35 1 0 -3 -22 -6 -50 -6 -27 0 -50 3 -50 7 0 4 -13 3
-30 -2 -17 -5 -30 -5 -30 0 0 5 -13 5 -30 0 -17 -5 -30 -5 -30 0 0 5 -13 5
-30 0 -16 -5 -30 -6 -30 -2 0 4 -16 7 -35 7 -19 0 -35 -3 -35 -7 0 -4 -13 -3
-30 2 -17 5 -30 5 -30 0 0 -5 -13 -5 -30 0 -17 5 -30 5 -30 0 0 -5 -13 -5 -30
0 -17 5 -30 5 -30 0 0 -5 -13 -5 -30 0 -19 5 -30 5 -30 -1 0 -6 -4 -7 -10 -4
-13 8 -114 10 -126 2 -5 -3 -16 -2 -24 3 -7 4 -23 4 -36 0 -12 -5 -25 -6 -28
-3 -8 8 -76 10 -76 2 0 -4 -16 -3 -35 1 -19 4 -35 5 -35 1 0 -3 -21 -5 -47 -3
-27 1 -54 3 -60 2 -7 0 -20 0 -28 0 -8 0 -22 0 -30 0 -8 0 -22 0 -30 0 -8 0
-22 0 -30 0 -8 0 -22 0 -30 0 -8 0 -22 0 -30 0 -8 0 -22 0 -30 0 -8 0 -22 0
-30 0 -8 0 -22 0 -30 0 -8 0 -22 0 -30 0 -8 0 -22 0 -30 0 -8 0 -22 0 -30 0
-8 0 -22 0 -30 0 -8 0 -22 0 -30 0 -8 0 -22 0 -30 0 -8 0 -22 0 -30 0 -8 0
-21 0 -27 0 -7 0 -34 0 -59 1 -25 1 -50 0 -55 -4 -6 -3 -16 -2 -24 3 -7 4 -23
4 -36 0 -12 -5 -25 -6 -28 -3 -8 8 -76 10 -76 2 0 -4 -16 -3 -35 1 -21 5 -35
4 -35 -2 0 -5 -3 -7 -7 -5 -5 3 -41 8 -80 11 -75 6 -93 12 -179 53 -55 26
-135 96 -173 151 -47 67 -72 151 -76 255 -3 54 -7 103 -10 108 -4 5 -2 9 4 9
6 0 7 11 2 28 -5 15 -5 37 0 49 5 13 4 25 -1 28 -6 3 -6 15 0 29 5 13 6 27 3
30 -8 7 -8 74 -1 81 3 3 2 20 -1 38 -4 18 -4 47 0 65 4 17 3 34 -2 37 -4 3 -5
16 0 28 5 12 5 31 1 42 -4 11 -5 24 -2 29 7 13 8 136 0 136 -4 0 -3 13 2 30 5
17 5 32 0 35 -5 3 -5 16 0 30 6 15 6 27 0 30 -6 3 -6 15 0 29 5 13 6 27 3 30
-8 7 -8 74 -1 81 3 3 2 20 -1 38 -4 18 -4 47 0 65 4 17 3 34 -2 37 -4 3 -5 16
0 28 5 12 5 31 1 42 -4 11 -5 24 -2 29 7 13 8 136 0 136 -4 0 -3 13 2 30 5 17
5 32 0 35 -5 3 -5 16 0 30 6 15 6 27 0 30 -6 3 -6 15 0 29 5 13 6 27 3 30 -8
7 -8 74 -1 81 3 3 2 20 -1 38 -4 18 -4 47 0 65 4 17 3 34 -2 37 -4 3 -5 16 0
28 5 12 5 31 1 42 -4 11 -5 24 -2 29 7 13 8 136 0 136 -4 0 -3 13 2 30 5 17 5
32 0 35 -5 3 -5 16 0 30 6 15 6 27 0 30 -6 3 -6 15 0 29 5 13 6 27 3 30 -8 8
-8 74 -1 82 3 3 2 20 -2 39 -4 19 -6 36 -3 39 2 2 4 33 4 68 -1 34 -1 71 -1
81 0 9 0 24 0 32 0 8 0 22 0 30 0 8 0 22 0 30 0 8 0 22 0 30 0 8 0 23 0 33 0
9 0 39 -1 65 -1 27 1 51 4 54 3 3 2 15 -3 28 -5 13 -6 26 -3 29 8 8 9 136 1
136 -4 0 -3 13 2 30 5 17 5 32 0 35 -5 3 -5 16 0 30 6 15 6 27 0 30 -6 3 -6
15 0 29 5 13 6 27 3 30 -8 8 -8 74 -1 82 3 3 2 20 -2 39 -4 19 -6 36 -3 39 7
6 7 136 0 142 -4 4 -2 14 3 23 5 10 5 23 0 31 -5 8 -5 21 0 30 5 9 5 22 0 30
-5 8 -5 21 0 30 5 9 5 22 1 28 -4 7 -5 35 -1 62 4 27 3 55 -1 62 -4 6 -4 19 1
28 5 9 5 22 1 29 -5 7 -5 28 -1 47 4 19 4 34 0 34 -5 0 -5 12 -1 28 5 15 5 36
1 46 -3 11 -3 39 0 63 4 24 3 46 -1 49 -5 2 -4 16 1 29 6 15 6 27 -1 30 -5 4
-7 9 -5 13 2 4 7 34 10 67 3 33 8 67 10 75 15 66 67 159 121 214 86 89 182
133 314 143 42 3 78 7 81 10 2 2 6 0 8 -6 2 -6 14 -6 33 -1z"/>
</g>
</svg>
